<svg id="svg" version="1.1" width="400" height="89.375" viewBox="0 0 400 89.375" xmlns="http://www.w3.org/2000/svg" xmlns:xlink="http://www.w3.org/1999/xlink" ><g id="svgg"><path id="path0" d="M15.500 34.063 C 15.500 34.098,15.612 34.219,15.750 34.333 C 15.955 34.503,16.000 34.492,16.000 34.270 C 16.000 34.122,15.887 34.000,15.750 34.000 C 15.612 34.000,15.500 34.028,15.500 34.063 M26.375 53.540 C 26.402 53.624,26.496 53.692,26.583 53.692 C 26.670 53.692,26.764 53.624,26.792 53.540 C 26.820 53.457,26.726 53.389,26.583 53.389 C 26.441 53.389,26.347 53.457,26.375 53.540 " stroke="none" fill="#000000" fill-rule="evenodd"></path><path id="path1" d="M22.313 0.417 C 22.301 0.462,22.282 0.594,22.271 0.708 C 22.257 0.842,21.906 0.935,21.292 0.967 C 20.470 1.010,20.333 1.063,20.333 1.342 C 20.333 1.624,20.214 1.667,19.417 1.667 C 18.713 1.667,18.500 1.725,18.500 1.917 C 18.500 2.056,18.352 2.167,18.167 2.167 C 17.944 2.167,17.833 2.278,17.833 2.500 C 17.833 2.770,17.722 2.833,17.250 2.833 C 16.778 2.833,16.667 2.897,16.667 3.167 C 16.667 3.468,16.253 3.611,15.635 3.523 C 15.572 3.514,15.473 3.655,15.416 3.837 C 15.358 4.018,15.222 4.168,15.114 4.170 C 14.868 4.173,14.167 4.898,14.167 5.148 C 14.167 5.250,14.017 5.333,13.833 5.333 C 13.611 5.333,13.500 5.444,13.500 5.667 C 13.500 5.889,13.389 6.000,13.167 6.000 C 12.897 6.000,12.833 6.111,12.833 6.583 C 12.833 7.006,12.760 7.167,12.568 7.167 C 12.422 7.167,12.263 7.317,12.215 7.500 C 12.167 7.683,12.024 7.833,11.897 7.833 C 11.770 7.833,11.667 7.983,11.667 8.167 C 11.667 8.465,11.494 8.578,11.125 8.520 C 11.056 8.509,11.000 8.759,11.000 9.075 C 11.000 9.434,10.898 9.707,10.728 9.802 C 10.550 9.902,10.426 10.261,10.371 10.834 C 10.319 11.379,10.168 11.832,9.977 12.023 C 9.721 12.279,9.667 12.593,9.667 13.823 C 9.667 14.643,9.592 15.360,9.500 15.417 C 9.408 15.473,9.334 15.609,9.336 15.718 C 9.337 15.837,9.403 15.817,9.500 15.667 C 9.608 15.499,9.662 16.219,9.664 17.855 C 9.667 20.140,9.825 20.953,10.195 20.583 C 10.240 20.538,10.292 20.932,10.310 21.459 C 10.336 22.198,10.419 22.469,10.672 22.645 C 10.929 22.825,11.000 23.067,11.000 23.770 C 11.000 24.556,11.041 24.667,11.333 24.667 C 11.611 24.667,11.667 24.778,11.667 25.333 C 11.667 25.815,11.736 26.000,11.917 26.000 C 12.091 26.000,12.167 26.176,12.167 26.583 C 12.167 27.056,12.230 27.167,12.500 27.167 C 12.790 27.167,12.833 27.278,12.833 28.016 C 12.833 28.724,12.888 28.879,13.167 28.952 C 13.419 29.018,13.500 29.179,13.500 29.618 C 13.500 30.058,13.581 30.219,13.833 30.285 C 14.084 30.351,14.167 30.512,14.167 30.936 C 14.167 31.326,14.244 31.500,14.417 31.500 C 14.593 31.500,14.667 31.678,14.667 32.099 C 14.667 32.558,14.745 32.718,15.000 32.785 C 15.250 32.851,15.333 33.012,15.333 33.436 C 15.333 33.889,15.399 34.000,15.667 34.000 C 15.944 34.000,16.000 34.111,16.000 34.667 C 16.000 35.222,16.056 35.333,16.333 35.333 C 16.603 35.333,16.667 35.444,16.667 35.917 C 16.667 36.324,16.742 36.500,16.917 36.500 C 17.097 36.500,17.167 36.685,17.167 37.167 C 17.167 37.722,17.222 37.833,17.500 37.833 C 17.770 37.833,17.833 37.944,17.833 38.417 C 17.833 38.889,17.897 39.000,18.167 39.000 C 18.444 39.000,18.500 39.111,18.500 39.667 L 18.500 40.333 9.250 40.333 L 0.000 40.333 0.000 41.165 C 0.000 42.124,0.474 42.833,1.113 42.833 C 1.326 42.833,1.650 42.983,1.833 43.167 C 2.017 43.350,2.317 43.500,2.500 43.500 C 2.685 43.500,2.833 43.611,2.833 43.750 C 2.833 43.889,2.981 44.000,3.167 44.000 C 3.389 44.000,3.500 44.111,3.500 44.333 C 3.500 44.517,3.650 44.817,3.833 45.000 C 4.017 45.183,4.167 45.446,4.167 45.583 C 4.167 45.721,4.270 45.833,4.397 45.833 C 4.524 45.833,4.667 45.983,4.715 46.167 C 4.763 46.350,4.922 46.500,5.068 46.500 C 5.222 46.500,5.333 46.639,5.333 46.833 C 5.333 47.056,5.444 47.167,5.667 47.167 C 5.937 47.167,6.000 47.278,6.000 47.750 C 6.000 48.222,6.063 48.333,6.333 48.333 C 6.556 48.333,6.667 48.444,6.667 48.667 C 6.667 48.852,6.778 49.000,6.917 49.000 C 7.054 49.000,7.167 49.138,7.167 49.308 C 7.167 49.477,7.317 49.751,7.500 49.917 C 7.683 50.083,7.833 50.357,7.833 50.526 C 7.833 50.722,7.954 50.833,8.167 50.833 C 8.389 50.833,8.500 50.944,8.500 51.167 C 8.500 51.389,8.611 51.500,8.833 51.500 C 9.103 51.500,9.167 51.611,9.167 52.083 C 9.167 52.491,9.242 52.667,9.417 52.667 C 9.556 52.667,9.667 52.815,9.667 53.000 C 9.667 53.222,9.778 53.333,10.000 53.333 C 10.222 53.333,10.333 53.444,10.333 53.667 C 10.333 53.850,10.483 54.150,10.667 54.333 C 10.850 54.517,11.000 54.786,11.000 54.932 C 11.000 55.078,11.150 55.237,11.333 55.285 C 11.517 55.333,11.667 55.476,11.667 55.603 C 11.667 55.730,11.779 55.833,11.917 55.833 C 12.072 55.833,12.167 55.991,12.167 56.250 C 12.167 56.479,12.304 56.804,12.471 56.971 C 12.638 57.138,12.824 57.401,12.883 57.554 C 12.941 57.708,13.104 57.833,13.245 57.833 C 13.385 57.833,13.500 57.936,13.500 58.061 C 13.500 58.186,13.650 58.479,13.833 58.712 C 14.017 58.945,14.167 59.255,14.167 59.401 C 14.167 59.547,14.263 59.667,14.380 59.667 C 14.498 59.667,14.687 59.873,14.800 60.125 C 15.227 61.071,15.526 61.500,15.759 61.500 C 15.892 61.500,16.000 61.650,16.000 61.833 C 16.000 62.056,16.111 62.167,16.333 62.167 C 16.603 62.167,16.667 62.278,16.667 62.750 C 16.667 63.157,16.742 63.333,16.917 63.333 C 17.054 63.333,17.167 63.453,17.167 63.599 C 17.167 63.745,17.317 63.904,17.500 63.952 C 17.683 64.000,17.833 64.166,17.833 64.321 C 17.833 64.477,17.983 64.765,18.167 64.962 C 18.350 65.158,18.500 65.435,18.500 65.576 C 18.500 65.722,18.644 65.833,18.833 65.833 C 19.056 65.833,19.167 65.944,19.167 66.167 C 19.167 66.350,19.271 66.500,19.398 66.500 C 19.531 66.500,19.676 66.749,19.739 67.083 C 19.805 67.433,19.946 67.667,20.091 67.667 C 20.300 67.667,20.333 68.828,20.333 76.075 L 20.333 84.483 19.953 84.894 C 19.743 85.119,19.350 85.330,19.078 85.360 C 18.586 85.416,18.583 85.422,18.534 86.625 L 18.485 87.833 26.243 87.833 L 34.000 87.833 34.000 86.859 C 34.000 85.838,33.706 85.333,33.112 85.333 C 32.662 85.333,32.167 84.713,32.167 84.151 C 32.167 83.776,32.076 83.612,31.833 83.548 C 31.506 83.463,31.500 83.321,31.500 75.917 C 31.500 68.512,31.506 68.371,31.833 68.285 C 32.076 68.222,32.167 68.058,32.167 67.682 C 32.167 67.278,32.238 67.167,32.500 67.167 C 32.722 67.167,32.833 67.056,32.833 66.833 C 32.833 66.650,32.938 66.500,33.067 66.500 C 33.312 66.500,34.000 65.330,34.000 64.912 C 34.000 64.777,34.150 64.667,34.333 64.667 C 34.549 64.667,34.667 64.556,34.667 64.353 C 34.667 64.179,34.816 64.000,35.000 63.952 C 35.239 63.889,35.333 63.724,35.333 63.368 C 35.333 63.012,35.428 62.848,35.667 62.785 C 35.850 62.737,36.000 62.578,36.000 62.432 C 36.000 62.286,36.112 62.167,36.250 62.167 C 36.389 62.167,36.500 62.019,36.500 61.833 C 36.500 61.650,36.650 61.350,36.833 61.167 C 37.017 60.983,37.167 60.721,37.167 60.583 C 37.167 60.446,37.282 60.333,37.422 60.333 C 37.562 60.333,37.725 60.208,37.784 60.054 C 37.843 59.901,38.028 59.638,38.196 59.471 C 38.363 59.304,38.500 58.979,38.500 58.750 C 38.500 58.491,38.594 58.333,38.750 58.333 C 38.887 58.333,39.000 58.230,39.000 58.103 C 39.000 57.976,39.150 57.833,39.333 57.785 C 39.517 57.737,39.667 57.578,39.667 57.432 C 39.667 57.286,39.817 57.017,40.000 56.833 C 40.183 56.650,40.333 56.350,40.333 56.167 C 40.333 55.944,40.444 55.833,40.667 55.833 C 40.889 55.833,41.000 55.722,41.000 55.500 C 41.000 55.315,41.111 55.167,41.250 55.167 C 41.425 55.167,41.500 54.991,41.500 54.583 C 41.500 54.111,41.563 54.000,41.833 54.000 C 42.056 54.000,42.167 53.889,42.167 53.667 C 42.167 53.444,42.278 53.333,42.500 53.333 C 42.713 53.333,42.833 53.222,42.833 53.026 C 42.833 52.857,42.983 52.583,43.167 52.417 C 43.350 52.251,43.500 51.977,43.500 51.808 C 43.500 51.638,43.612 51.500,43.750 51.500 C 43.889 51.500,44.000 51.352,44.000 51.167 C 44.000 50.944,44.111 50.833,44.333 50.833 C 44.603 50.833,44.667 50.722,44.667 50.250 C 44.667 49.778,44.730 49.667,45.000 49.667 C 45.222 49.667,45.333 49.556,45.333 49.333 C 45.333 49.150,45.438 49.000,45.567 49.000 C 45.812 49.000,46.500 47.830,46.500 47.412 C 46.500 47.277,46.650 47.167,46.833 47.167 C 47.056 47.167,47.167 47.056,47.167 46.833 C 47.167 46.646,47.278 46.500,47.421 46.500 C 47.561 46.500,47.740 46.328,47.820 46.118 C 47.900 45.908,48.086 45.636,48.233 45.514 C 48.380 45.392,48.500 45.152,48.500 44.980 C 48.500 44.807,48.612 44.667,48.750 44.667 C 48.889 44.667,49.000 44.519,49.000 44.333 C 49.000 44.111,49.111 44.000,49.333 44.000 C 49.519 44.000,49.667 43.889,49.667 43.750 C 49.667 43.612,49.805 43.500,49.974 43.500 C 50.143 43.500,50.417 43.350,50.583 43.167 C 50.749 42.983,51.055 42.833,51.262 42.833 C 51.813 42.833,52.167 42.663,52.167 42.399 C 52.167 42.271,52.317 42.167,52.500 42.167 C 52.793 42.167,52.833 42.056,52.833 41.250 L 52.833 40.333 43.750 40.333 C 34.778 40.333,34.667 40.329,34.667 40.000 C 34.667 39.778,34.778 39.667,35.000 39.667 C 35.268 39.667,35.333 39.556,35.333 39.103 C 35.333 38.679,35.416 38.517,35.667 38.452 C 35.922 38.385,36.000 38.224,36.000 37.766 C 36.000 37.344,36.074 37.167,36.250 37.167 C 36.425 37.167,36.500 36.991,36.500 36.583 C 36.500 36.111,36.563 36.000,36.833 36.000 C 37.111 36.000,37.167 35.889,37.167 35.333 C 37.167 34.778,37.222 34.667,37.500 34.667 C 37.770 34.667,37.833 34.556,37.833 34.083 C 37.833 33.611,37.897 33.500,38.167 33.500 C 38.444 33.500,38.500 33.389,38.500 32.833 C 38.500 32.352,38.569 32.167,38.750 32.167 C 38.925 32.167,39.000 31.991,39.000 31.583 C 39.000 31.111,39.063 31.000,39.333 31.000 C 39.609 31.000,39.667 30.889,39.667 30.353 C 39.667 29.846,39.739 29.687,40.000 29.618 C 40.251 29.553,40.333 29.391,40.333 28.964 C 40.333 28.627,40.469 28.251,40.667 28.038 C 40.870 27.820,41.000 27.450,41.000 27.090 C 41.000 26.677,41.075 26.500,41.250 26.500 C 41.425 26.500,41.500 26.324,41.500 25.917 C 41.500 25.444,41.563 25.333,41.833 25.333 C 42.130 25.333,42.167 25.222,42.167 24.326 C 42.167 23.459,42.207 23.326,42.458 23.368 C 42.703 23.409,42.758 23.264,42.800 22.458 C 42.843 21.636,42.896 21.500,43.175 21.500 C 43.460 21.500,43.500 21.381,43.500 20.520 C 43.500 19.853,43.580 19.475,43.750 19.333 C 44.102 19.041,44.127 13.295,43.775 13.430 C 43.602 13.497,43.543 13.245,43.516 12.320 C 43.482 11.159,43.163 10.366,42.934 10.876 C 42.883 10.990,42.849 10.933,42.857 10.750 C 42.912 9.529,42.830 9.167,42.500 9.167 C 42.278 9.167,42.167 9.056,42.167 8.833 C 42.167 8.611,42.056 8.500,41.833 8.500 C 41.556 8.500,41.500 8.389,41.500 7.833 C 41.500 7.352,41.431 7.167,41.250 7.167 C 41.112 7.167,41.000 7.054,41.000 6.917 C 41.000 6.778,40.852 6.667,40.667 6.667 C 40.444 6.667,40.333 6.556,40.333 6.333 C 40.333 6.115,40.222 6.000,40.012 6.000 C 39.805 6.000,39.671 5.866,39.637 5.625 C 39.601 5.375,39.486 5.266,39.292 5.299 C 39.093 5.332,39.000 5.239,39.000 5.007 C 39.000 4.816,38.891 4.667,38.750 4.667 C 38.612 4.667,38.500 4.554,38.500 4.417 C 38.500 4.278,38.352 4.167,38.167 4.167 C 37.944 4.167,37.833 4.056,37.833 3.833 C 37.833 3.611,37.722 3.500,37.500 3.500 C 37.278 3.500,37.167 3.389,37.167 3.167 C 37.167 2.899,37.056 2.833,36.603 2.833 C 36.179 2.833,36.017 2.750,35.952 2.500 C 35.885 2.245,35.724 2.167,35.266 2.167 C 34.844 2.167,34.667 2.093,34.667 1.917 C 34.667 1.743,34.491 1.667,34.089 1.667 C 33.682 1.667,33.459 1.568,33.333 1.333 C 33.181 1.049,32.984 1.000,31.994 1.000 C 30.944 1.000,30.833 0.968,30.833 0.667 C 30.833 0.350,22.391 0.102,22.313 0.417 M29.167 6.833 C 29.167 7.125,29.278 7.167,30.064 7.167 C 30.821 7.167,30.975 7.219,31.048 7.500 C 31.111 7.739,31.276 7.833,31.632 7.833 C 31.988 7.833,32.152 7.928,32.215 8.167 C 32.263 8.350,32.432 8.500,32.591 8.500 C 32.750 8.500,32.987 8.631,33.119 8.792 C 33.250 8.952,33.311 8.990,33.253 8.875 C 33.194 8.760,33.226 8.667,33.323 8.667 C 33.421 8.667,33.500 8.742,33.500 8.833 C 33.500 8.925,33.650 9.000,33.833 9.000 C 34.056 9.000,34.167 9.111,34.167 9.333 C 34.167 9.519,34.278 9.667,34.417 9.667 C 34.556 9.667,34.667 9.815,34.667 10.000 C 34.667 10.222,34.778 10.333,35.000 10.333 C 35.270 10.333,35.333 10.444,35.333 10.917 C 35.333 11.389,35.397 11.500,35.667 11.500 C 35.971 11.500,36.126 12.033,36.020 12.708 C 36.009 12.777,36.056 12.824,36.125 12.814 C 36.576 12.742,36.667 12.886,36.667 13.672 C 36.667 14.264,36.740 14.539,36.917 14.606 C 37.114 14.682,37.167 15.030,37.167 16.268 C 37.167 17.548,37.121 17.833,36.917 17.833 C 36.725 17.833,36.667 18.044,36.667 18.731 C 36.667 19.488,36.615 19.641,36.333 19.715 C 36.078 19.782,36.000 19.942,36.000 20.401 C 36.000 20.889,35.938 21.000,35.667 21.000 C 35.389 21.000,35.333 21.111,35.333 21.667 C 35.333 22.033,35.277 22.324,35.208 22.314 C 34.865 22.259,34.667 22.358,34.667 22.583 C 34.667 22.721,34.554 22.833,34.417 22.833 C 34.278 22.833,34.167 22.981,34.167 23.167 C 34.167 23.444,34.056 23.500,33.500 23.500 C 32.944 23.500,32.833 23.556,32.833 23.833 C 32.833 24.056,32.722 24.167,32.500 24.167 C 32.315 24.167,32.167 24.278,32.167 24.417 C 32.167 24.591,31.991 24.667,31.583 24.667 C 31.111 24.667,31.000 24.730,31.000 25.000 C 31.000 25.303,29.689 25.509,28.777 25.348 C 28.701 25.335,28.598 25.476,28.550 25.662 C 28.416 26.172,24.754 26.185,24.621 25.676 C 24.553 25.415,24.363 25.342,23.643 25.301 C 22.983 25.263,22.750 25.185,22.750 25.000 C 22.750 24.863,22.637 24.743,22.500 24.734 C 22.363 24.725,22.081 24.706,21.875 24.692 C 21.664 24.678,21.500 24.557,21.500 24.417 C 21.500 24.242,21.324 24.167,20.917 24.167 C 20.444 24.167,20.333 24.103,20.333 23.833 C 20.333 23.611,20.222 23.500,20.000 23.500 C 19.778 23.500,19.667 23.389,19.667 23.167 C 19.667 22.944,19.556 22.833,19.333 22.833 C 19.111 22.833,19.000 22.722,19.000 22.500 C 19.000 22.315,18.889 22.167,18.750 22.167 C 18.612 22.167,18.500 22.054,18.500 21.917 C 18.500 21.778,18.352 21.667,18.167 21.667 C 17.889 21.667,17.833 21.556,17.833 21.000 C 17.833 20.444,17.778 20.333,17.500 20.333 C 17.230 20.333,17.167 20.222,17.167 19.750 C 17.167 19.278,17.103 19.167,16.833 19.167 C 16.513 19.167,16.500 19.056,16.500 16.333 C 16.500 13.611,16.513 13.500,16.833 13.500 C 17.111 13.500,17.167 13.389,17.167 12.833 C 17.167 12.278,17.222 12.167,17.500 12.167 C 17.768 12.167,17.833 12.056,17.833 11.603 C 17.833 11.179,17.916 11.017,18.167 10.952 C 18.350 10.904,18.500 10.745,18.500 10.599 C 18.500 10.453,18.612 10.333,18.750 10.333 C 18.889 10.333,19.000 10.185,19.000 10.000 C 19.000 9.778,19.111 9.667,19.333 9.667 C 19.556 9.667,19.667 9.556,19.667 9.333 C 19.667 9.111,19.778 9.000,20.000 9.000 C 20.185 9.000,20.333 8.889,20.333 8.750 C 20.333 8.612,20.443 8.500,20.577 8.500 C 20.712 8.500,20.902 8.350,21.000 8.167 C 21.117 7.948,21.349 7.833,21.673 7.833 C 22.056 7.833,22.167 7.758,22.167 7.500 C 22.167 7.207,22.278 7.167,23.083 7.167 C 23.889 7.167,24.000 7.126,24.000 6.833 C 24.000 6.514,24.111 6.500,26.583 6.500 C 29.056 6.500,29.167 6.514,29.167 6.833 M19.427 41.500 C 19.591 41.500,19.667 41.689,19.667 42.099 C 19.667 42.558,19.745 42.718,20.000 42.785 C 20.250 42.851,20.333 43.012,20.333 43.436 C 20.333 43.889,20.399 44.000,20.667 44.000 C 20.889 44.000,21.000 44.111,21.000 44.333 C 21.000 44.556,21.111 44.667,21.333 44.667 C 21.603 44.667,21.667 44.778,21.667 45.250 C 21.667 45.657,21.742 45.833,21.917 45.833 C 22.097 45.833,22.167 46.019,22.167 46.500 C 22.167 47.056,22.222 47.167,22.500 47.167 C 22.770 47.167,22.833 47.278,22.833 47.750 C 22.833 48.222,22.897 48.333,23.167 48.333 C 23.471 48.333,23.626 48.866,23.520 49.542 C 23.509 49.610,23.556 49.658,23.625 49.647 C 23.994 49.589,24.167 49.702,24.167 50.000 C 24.167 50.185,24.278 50.333,24.417 50.333 C 24.591 50.333,24.667 50.509,24.667 50.917 C 24.667 51.389,24.730 51.500,25.000 51.500 C 25.270 51.500,25.333 51.611,25.333 52.083 C 25.333 52.506,25.407 52.667,25.599 52.667 C 25.745 52.667,25.904 52.817,25.952 53.000 C 26.078 53.484,27.167 53.484,27.167 53.000 C 27.167 52.817,27.223 52.676,27.292 52.686 C 27.635 52.741,27.833 52.642,27.833 52.417 C 27.833 52.278,27.981 52.167,28.167 52.167 C 28.444 52.167,28.500 52.056,28.500 51.500 C 28.500 51.019,28.569 50.833,28.750 50.833 C 28.925 50.833,29.000 50.657,29.000 50.250 C 29.000 49.778,29.063 49.667,29.333 49.667 C 29.549 49.667,29.667 49.556,29.667 49.353 C 29.667 49.179,29.816 49.000,30.000 48.952 C 30.243 48.888,30.333 48.724,30.333 48.349 C 30.333 47.944,30.405 47.833,30.667 47.833 C 30.944 47.833,31.000 47.722,31.000 47.167 C 31.000 46.685,31.069 46.500,31.250 46.500 C 31.425 46.500,31.500 46.324,31.500 45.917 C 31.500 45.444,31.563 45.333,31.833 45.333 C 32.111 45.333,32.167 45.222,32.167 44.667 C 32.167 44.111,32.222 44.000,32.500 44.000 C 32.683 44.000,32.833 43.896,32.833 43.769 C 32.833 43.643,32.983 43.500,33.167 43.452 C 33.422 43.385,33.500 43.224,33.500 42.766 C 33.500 42.278,33.562 42.167,33.833 42.167 C 34.056 42.167,34.167 42.278,34.167 42.500 C 34.167 42.768,34.278 42.833,34.731 42.833 C 35.238 42.833,35.303 42.887,35.374 43.366 C 35.503 44.245,35.322 45.333,35.046 45.333 C 34.912 45.333,34.763 45.483,34.715 45.667 C 34.667 45.850,34.524 46.000,34.397 46.000 C 34.245 46.000,34.167 46.198,34.167 46.583 C 34.167 47.056,34.103 47.167,33.833 47.167 C 33.618 47.167,33.500 47.278,33.500 47.481 C 33.500 47.654,33.351 47.833,33.167 47.882 C 32.983 47.930,32.833 48.091,32.833 48.241 C 32.833 48.391,32.683 48.675,32.500 48.872 C 32.317 49.069,32.167 49.328,32.167 49.448 C 32.167 49.568,32.054 49.667,31.917 49.667 C 31.778 49.667,31.667 49.815,31.667 50.000 C 31.667 50.183,31.517 50.483,31.333 50.667 C 31.150 50.850,31.000 51.112,31.000 51.250 C 31.000 51.387,30.885 51.500,30.745 51.500 C 30.604 51.500,30.441 51.626,30.383 51.779 C 30.324 51.932,30.138 52.195,29.971 52.362 C 29.804 52.530,29.667 52.854,29.667 53.083 C 29.667 53.327,29.571 53.500,29.436 53.500 C 29.309 53.500,29.166 53.650,29.118 53.833 C 29.070 54.017,28.912 54.167,28.766 54.167 C 28.573 54.167,28.500 54.327,28.500 54.750 C 28.500 55.222,28.437 55.333,28.167 55.333 C 27.944 55.333,27.833 55.444,27.833 55.667 C 27.833 55.850,27.728 56.000,27.600 56.000 C 27.354 56.000,26.667 57.170,26.667 57.588 C 26.667 57.723,26.517 57.833,26.333 57.833 C 26.120 57.833,26.000 57.722,26.000 57.526 C 26.000 57.357,25.850 57.083,25.667 56.917 C 25.483 56.751,25.333 56.477,25.333 56.308 C 25.333 56.111,25.213 56.000,25.000 56.000 C 24.778 56.000,24.667 55.889,24.667 55.667 C 24.667 55.483,24.517 55.183,24.333 55.000 C 24.150 54.817,24.000 54.552,24.000 54.411 C 24.000 54.271,23.887 54.113,23.750 54.060 C 23.613 54.008,23.500 53.874,23.500 53.764 C 23.500 53.653,23.350 53.402,23.167 53.205 C 22.983 53.008,22.833 52.725,22.833 52.575 C 22.833 52.425,22.683 52.263,22.500 52.215 C 22.317 52.167,22.167 51.998,22.167 51.840 C 22.167 51.681,22.017 51.416,21.833 51.250 C 21.650 51.084,21.500 50.810,21.500 50.641 C 21.500 50.472,21.387 50.333,21.250 50.333 C 21.112 50.333,21.000 50.195,21.000 50.026 C 21.000 49.857,20.850 49.583,20.667 49.417 C 20.483 49.251,20.333 48.977,20.333 48.808 C 20.333 48.611,20.213 48.500,20.000 48.500 C 19.778 48.500,19.667 48.389,19.667 48.167 C 19.667 47.983,19.517 47.683,19.333 47.500 C 19.150 47.317,19.000 47.052,19.000 46.911 C 19.000 46.771,18.887 46.613,18.750 46.560 C 18.612 46.508,18.500 46.360,18.500 46.232 C 18.500 46.104,18.350 46.000,18.167 46.000 C 17.895 46.000,17.833 45.889,17.833 45.401 C 17.833 44.942,17.755 44.782,17.500 44.715 C 16.761 44.522,17.429 42.833,18.245 42.833 C 18.894 42.833,19.000 42.645,19.028 41.441 C 19.044 40.767,19.084 40.522,19.121 40.875 C 19.164 41.278,19.272 41.500,19.427 41.500 M393.500 47.167 C 393.500 47.722,393.444 47.833,393.167 47.833 C 392.944 47.833,392.833 47.944,392.833 48.167 C 392.833 48.427,392.722 48.500,392.328 48.500 C 392.033 48.500,391.783 48.604,391.727 48.750 C 391.643 48.970,389.534 49.000,374.142 49.000 L 356.652 49.000 356.701 50.208 L 356.750 51.417 357.275 51.468 C 357.628 51.502,357.827 51.624,357.884 51.843 C 357.931 52.021,358.088 52.167,358.234 52.167 C 358.476 52.167,358.500 53.651,358.500 68.326 L 358.500 84.485 358.087 84.898 C 357.860 85.125,357.466 85.334,357.212 85.364 C 356.760 85.416,356.749 85.442,356.701 86.625 L 356.652 87.833 374.725 87.833 C 390.636 87.833,392.809 87.863,392.894 88.083 C 392.954 88.240,393.209 88.333,393.578 88.333 C 394.121 88.333,394.167 88.372,394.167 88.833 L 394.167 89.333 395.333 89.333 L 396.500 89.333 396.500 83.583 L 396.500 77.833 395.583 77.833 C 394.778 77.833,394.667 77.874,394.667 78.167 C 394.667 78.352,394.556 78.500,394.417 78.500 C 394.242 78.500,394.167 78.676,394.167 79.083 C 394.167 79.620,394.127 79.667,393.668 79.667 C 393.350 79.667,393.094 79.787,392.961 80.000 C 392.756 80.328,392.573 80.333,380.877 80.333 L 369.000 80.333 369.000 75.917 L 369.000 71.500 375.917 71.500 C 382.611 71.500,382.844 71.511,383.167 71.833 C 383.350 72.017,383.650 72.167,383.833 72.167 C 384.017 72.167,384.167 72.275,384.167 72.408 C 384.167 72.541,384.273 72.710,384.402 72.783 C 384.532 72.857,384.663 73.142,384.694 73.417 C 384.747 73.894,384.790 73.919,385.625 73.967 L 386.500 74.017 386.500 67.750 L 386.500 61.483 385.625 61.533 L 384.750 61.583 384.698 62.208 C 384.664 62.617,384.564 62.833,384.407 62.833 C 384.275 62.833,384.167 62.983,384.167 63.167 C 384.167 63.377,384.056 63.500,383.865 63.500 C 383.699 63.500,383.418 63.610,383.240 63.745 C 382.968 63.951,381.813 63.990,375.958 63.995 L 369.000 64.000 369.000 60.250 L 369.000 56.500 380.250 56.500 C 391.278 56.500,391.507 56.507,391.833 56.833 C 392.017 57.017,392.308 57.167,392.481 57.167 C 392.654 57.167,392.833 57.316,392.882 57.500 C 392.930 57.683,393.088 57.833,393.234 57.833 C 393.427 57.833,393.500 57.995,393.500 58.424 L 393.500 59.015 394.708 58.966 L 395.917 58.917 395.960 52.936 C 396.011 46.101,396.097 46.500,394.563 46.500 L 393.500 46.500 393.500 47.167 M69.833 48.750 C 69.833 48.940,69.624 49.001,68.958 49.002 C 67.850 49.005,67.333 49.143,67.333 49.436 C 67.333 49.585,67.141 49.667,66.792 49.669 C 66.000 49.672,65.500 49.840,65.500 50.103 C 65.500 50.261,65.290 50.333,64.833 50.333 C 64.278 50.333,64.167 50.389,64.167 50.667 C 64.167 50.944,64.056 51.000,63.500 51.000 C 63.035 51.000,62.833 51.072,62.833 51.237 C 62.833 51.367,62.603 51.524,62.322 51.586 C 62.041 51.648,61.770 51.804,61.721 51.932 C 61.671 52.061,61.489 52.167,61.316 52.167 C 61.111 52.167,61.000 52.284,61.000 52.500 C 61.000 52.723,60.889 52.833,60.665 52.833 C 60.481 52.833,60.202 52.983,60.045 53.167 C 59.888 53.350,59.626 53.500,59.463 53.500 C 59.300 53.500,59.167 53.607,59.167 53.739 C 59.167 53.870,59.017 54.025,58.833 54.083 C 58.650 54.142,58.500 54.288,58.500 54.408 C 58.500 54.529,58.350 54.667,58.167 54.715 C 57.983 54.763,57.833 54.922,57.833 55.068 C 57.833 55.214,57.721 55.333,57.583 55.333 C 57.446 55.333,57.333 55.434,57.333 55.558 C 57.333 55.681,57.183 55.955,57.000 56.167 C 56.817 56.378,56.667 56.690,56.667 56.859 C 56.667 57.056,56.546 57.167,56.333 57.167 C 56.111 57.167,56.000 57.278,56.000 57.500 C 56.000 57.683,55.896 57.833,55.768 57.833 C 55.529 57.833,55.333 58.178,55.333 58.597 C 55.333 58.727,55.183 58.983,55.000 59.167 C 54.817 59.350,54.667 59.679,54.667 59.899 C 54.667 60.118,54.554 60.341,54.417 60.394 C 54.240 60.461,54.167 60.736,54.167 61.328 C 54.167 61.944,54.078 62.255,53.833 62.500 C 53.541 62.793,53.500 63.056,53.500 64.655 C 53.500 66.331,53.473 66.486,53.167 66.583 C 52.862 66.680,52.833 66.836,52.833 68.417 C 52.833 69.998,52.862 70.153,53.167 70.250 C 53.473 70.347,53.500 70.502,53.500 72.178 C 53.500 73.778,53.541 74.041,53.833 74.333 C 54.054 74.554,54.167 74.889,54.167 75.321 C 54.167 75.682,54.279 76.089,54.417 76.226 C 54.554 76.364,54.667 76.706,54.667 76.987 C 54.667 77.317,54.785 77.571,55.000 77.705 C 55.183 77.820,55.333 78.082,55.333 78.289 C 55.333 78.495,55.483 78.758,55.667 78.872 C 55.850 78.987,56.000 79.212,56.000 79.373 C 56.000 79.556,56.126 79.667,56.333 79.667 C 56.546 79.667,56.667 79.778,56.667 79.974 C 56.667 80.144,56.817 80.455,57.000 80.667 C 57.183 80.878,57.333 81.152,57.333 81.276 C 57.333 81.399,57.446 81.500,57.583 81.500 C 57.721 81.500,57.833 81.620,57.833 81.766 C 57.833 81.912,57.983 82.070,58.167 82.118 C 58.350 82.166,58.500 82.304,58.500 82.425 C 58.500 82.546,58.650 82.692,58.833 82.750 C 59.017 82.808,59.167 82.963,59.167 83.095 C 59.167 83.226,59.300 83.333,59.463 83.333 C 59.626 83.333,59.888 83.483,60.045 83.667 C 60.202 83.850,60.481 84.000,60.665 84.000 C 60.889 84.000,61.000 84.111,61.000 84.333 C 61.000 84.556,61.111 84.667,61.333 84.667 C 61.517 84.667,61.667 84.771,61.667 84.899 C 61.667 85.154,62.017 85.333,62.514 85.333 C 62.689 85.333,62.833 85.446,62.833 85.583 C 62.833 85.764,63.019 85.833,63.500 85.833 C 64.056 85.833,64.167 85.889,64.167 86.167 C 64.167 86.434,64.278 86.500,64.731 86.500 C 65.154 86.500,65.316 86.583,65.382 86.833 C 65.454 87.109,65.609 87.167,66.278 87.167 C 66.906 87.167,67.133 87.241,67.295 87.500 C 67.468 87.778,67.683 87.833,68.590 87.833 C 69.403 87.833,69.701 87.896,69.773 88.083 C 69.856 88.300,70.732 88.333,76.250 88.333 C 81.768 88.333,82.644 88.300,82.727 88.083 C 82.796 87.903,83.079 87.833,83.745 87.833 C 84.444 87.833,84.747 87.753,85.000 87.500 C 85.206 87.294,85.556 87.167,85.917 87.167 C 86.278 87.167,86.627 87.040,86.833 86.833 C 87.023 86.644,87.389 86.500,87.682 86.500 C 88.058 86.500,88.222 86.409,88.285 86.167 C 88.346 85.933,88.512 85.833,88.843 85.833 C 89.102 85.833,89.363 85.754,89.423 85.656 C 89.483 85.559,89.713 85.411,89.933 85.327 C 90.153 85.243,90.333 85.061,90.333 84.921 C 90.333 84.748,90.498 84.667,90.849 84.667 C 91.224 84.667,91.388 84.576,91.452 84.333 C 91.500 84.149,91.679 84.000,91.853 84.000 C 92.056 84.000,92.167 83.882,92.167 83.667 C 92.167 83.444,92.278 83.333,92.500 83.333 C 92.683 83.333,92.833 83.230,92.833 83.103 C 92.833 82.976,92.983 82.833,93.167 82.785 C 93.350 82.737,93.500 82.578,93.500 82.432 C 93.500 82.286,93.612 82.167,93.750 82.167 C 93.889 82.167,94.000 82.019,94.000 81.833 C 94.000 81.611,94.111 81.500,94.333 81.500 C 94.556 81.500,94.667 81.389,94.667 81.167 C 94.667 80.944,94.778 80.833,95.000 80.833 C 95.183 80.833,95.333 80.729,95.333 80.601 C 95.333 80.473,95.435 80.330,95.559 80.282 C 95.817 80.184,96.500 78.946,96.500 78.578 C 96.500 78.444,96.650 78.333,96.833 78.333 C 97.101 78.333,97.167 78.222,97.167 77.769 C 97.167 77.346,97.250 77.184,97.500 77.118 C 97.755 77.052,97.833 76.891,97.833 76.432 C 97.833 76.056,97.957 75.710,98.167 75.500 C 98.419 75.247,98.500 74.944,98.500 74.250 C 98.500 73.546,98.558 73.333,98.750 73.333 C 98.966 73.333,99.000 72.712,99.000 68.745 C 99.000 64.820,98.964 64.142,98.750 64.060 C 98.564 63.989,98.500 63.692,98.500 62.900 C 98.500 62.017,98.443 61.801,98.167 61.628 C 97.918 61.473,97.833 61.239,97.833 60.711 C 97.833 60.183,97.748 59.950,97.500 59.795 C 97.293 59.666,97.167 59.406,97.167 59.111 C 97.167 58.776,97.068 58.610,96.833 58.548 C 96.650 58.500,96.500 58.360,96.500 58.236 C 96.500 57.883,95.810 56.647,95.559 56.551 C 95.435 56.503,95.333 56.360,95.333 56.232 C 95.333 56.104,95.183 56.000,95.000 56.000 C 94.778 56.000,94.667 55.889,94.667 55.667 C 94.667 55.444,94.556 55.333,94.333 55.333 C 94.111 55.333,94.000 55.222,94.000 55.000 C 94.000 54.815,93.889 54.667,93.750 54.667 C 93.612 54.667,93.500 54.547,93.500 54.401 C 93.500 54.255,93.350 54.096,93.167 54.048 C 92.983 54.000,92.833 53.857,92.833 53.731 C 92.833 53.604,92.683 53.500,92.500 53.500 C 92.278 53.500,92.167 53.389,92.167 53.167 C 92.167 52.951,92.056 52.833,91.853 52.833 C 91.679 52.833,91.500 52.684,91.452 52.500 C 91.388 52.257,91.224 52.167,90.849 52.167 C 90.498 52.167,90.333 52.086,90.333 51.913 C 90.333 51.773,90.153 51.590,89.933 51.506 C 89.713 51.422,89.483 51.274,89.423 51.177 C 89.363 51.080,89.093 51.000,88.823 51.000 C 88.516 51.000,88.333 50.914,88.333 50.768 C 88.333 50.513,87.983 50.333,87.486 50.333 C 87.311 50.333,87.017 50.183,86.833 50.000 C 86.627 49.794,86.278 49.667,85.917 49.667 C 85.556 49.667,85.206 49.540,85.000 49.333 C 84.742 49.075,84.444 49.000,83.684 49.000 C 82.965 49.000,82.677 48.933,82.606 48.750 C 82.523 48.534,81.652 48.500,76.172 48.500 C 70.649 48.500,69.833 48.532,69.833 48.750 M119.833 48.750 C 119.833 48.940,119.624 49.001,118.958 49.002 C 117.850 49.005,117.333 49.143,117.333 49.436 C 117.333 49.602,117.099 49.667,116.501 49.667 C 115.850 49.667,115.624 49.739,115.461 50.000 C 115.322 50.223,115.073 50.333,114.710 50.333 C 114.278 50.333,114.167 50.402,114.167 50.667 C 114.167 50.944,114.056 51.000,113.500 51.000 C 113.019 51.000,112.833 51.069,112.833 51.250 C 112.833 51.387,112.689 51.500,112.514 51.500 C 112.017 51.500,111.667 51.680,111.667 51.934 C 111.667 52.062,111.517 52.167,111.333 52.167 C 111.111 52.167,111.000 52.278,111.000 52.500 C 111.000 52.768,110.889 52.833,110.436 52.833 C 110.012 52.833,109.851 52.916,109.785 53.167 C 109.737 53.350,109.578 53.500,109.432 53.500 C 109.286 53.500,109.167 53.604,109.167 53.731 C 109.167 53.857,109.017 54.000,108.833 54.048 C 108.650 54.096,108.500 54.246,108.500 54.382 C 108.500 54.517,108.350 54.667,108.167 54.715 C 107.983 54.763,107.833 54.913,107.833 55.048 C 107.833 55.184,107.683 55.334,107.500 55.382 C 107.317 55.430,107.167 55.588,107.167 55.734 C 107.167 55.880,107.054 56.000,106.917 56.000 C 106.779 56.000,106.667 56.133,106.667 56.296 C 106.667 56.459,106.517 56.721,106.333 56.878 C 106.150 57.035,106.000 57.305,106.000 57.479 C 106.000 57.654,105.852 57.833,105.667 57.882 C 105.428 57.944,105.333 58.109,105.333 58.465 C 105.333 58.821,105.239 58.986,105.000 59.048 C 104.745 59.115,104.667 59.276,104.667 59.734 C 104.667 60.156,104.593 60.333,104.417 60.333 C 104.225 60.333,104.167 60.544,104.167 61.231 C 104.167 61.988,104.115 62.141,103.833 62.215 C 103.531 62.294,103.500 62.442,103.500 63.798 C 103.500 65.154,103.469 65.303,103.167 65.382 C 102.849 65.465,102.833 65.609,102.833 68.417 C 102.833 71.224,102.849 71.369,103.167 71.452 C 103.469 71.531,103.500 71.679,103.500 73.035 C 103.500 74.391,103.531 74.539,103.833 74.618 C 104.115 74.692,104.167 74.846,104.167 75.603 C 104.167 76.289,104.225 76.500,104.417 76.500 C 104.593 76.500,104.667 76.678,104.667 77.099 C 104.667 77.558,104.745 77.718,105.000 77.785 C 105.239 77.848,105.333 78.012,105.333 78.368 C 105.333 78.724,105.428 78.889,105.667 78.952 C 105.852 79.000,106.000 79.179,106.000 79.354 C 106.000 79.528,106.150 79.798,106.333 79.955 C 106.517 80.112,106.667 80.374,106.667 80.537 C 106.667 80.700,106.779 80.833,106.917 80.833 C 107.054 80.833,107.167 80.953,107.167 81.099 C 107.167 81.245,107.317 81.404,107.500 81.452 C 107.683 81.500,107.833 81.650,107.833 81.785 C 107.833 81.920,107.983 82.070,108.167 82.118 C 108.350 82.166,108.500 82.316,108.500 82.452 C 108.500 82.587,108.650 82.737,108.833 82.785 C 109.017 82.833,109.167 82.967,109.167 83.083 C 109.167 83.199,109.317 83.334,109.500 83.382 C 109.683 83.430,109.833 83.588,109.833 83.734 C 109.833 83.927,109.994 84.000,110.417 84.000 C 110.889 84.000,111.000 84.063,111.000 84.333 C 111.000 84.549,111.111 84.667,111.314 84.667 C 111.488 84.667,111.667 84.816,111.715 85.000 C 111.778 85.243,111.942 85.333,112.318 85.333 C 112.665 85.333,112.833 85.415,112.833 85.583 C 112.833 85.764,113.019 85.833,113.500 85.833 C 114.056 85.833,114.167 85.889,114.167 86.167 C 114.167 86.434,114.278 86.500,114.731 86.500 C 115.154 86.500,115.316 86.583,115.382 86.833 C 115.454 87.109,115.609 87.167,116.278 87.167 C 116.906 87.167,117.133 87.241,117.295 87.500 C 117.468 87.778,117.683 87.833,118.590 87.833 C 119.403 87.833,119.701 87.896,119.773 88.083 C 119.856 88.299,120.725 88.333,126.190 88.333 C 131.654 88.333,132.523 88.299,132.606 88.083 C 132.675 87.905,132.953 87.833,133.579 87.833 C 134.203 87.833,134.577 87.737,134.879 87.500 C 135.124 87.307,135.555 87.167,135.901 87.167 C 136.389 87.167,136.500 87.105,136.500 86.833 C 136.500 86.557,136.611 86.500,137.153 86.500 C 137.967 86.500,138.333 86.365,138.333 86.066 C 138.333 85.932,138.502 85.833,138.730 85.833 C 138.948 85.833,139.219 85.721,139.333 85.583 C 139.447 85.446,139.689 85.333,139.869 85.333 C 140.058 85.333,140.235 85.191,140.285 85.000 C 140.333 84.816,140.512 84.667,140.686 84.667 C 140.859 84.667,141.150 84.517,141.333 84.333 C 141.517 84.150,141.779 84.000,141.917 84.000 C 142.056 84.000,142.167 83.852,142.167 83.667 C 142.167 83.444,142.278 83.333,142.500 83.333 C 142.683 83.333,142.833 83.230,142.833 83.103 C 142.833 82.976,142.983 82.833,143.167 82.785 C 143.350 82.737,143.500 82.578,143.500 82.432 C 143.500 82.286,143.612 82.167,143.750 82.167 C 143.889 82.167,144.000 82.019,144.000 81.833 C 144.000 81.611,144.111 81.500,144.333 81.500 C 144.556 81.500,144.667 81.389,144.667 81.167 C 144.667 80.944,144.778 80.833,145.000 80.833 C 145.222 80.833,145.333 80.722,145.333 80.500 C 145.333 80.317,145.442 80.167,145.576 80.167 C 145.721 80.167,145.862 79.933,145.928 79.583 C 145.990 79.249,146.136 79.000,146.269 79.000 C 146.396 79.000,146.500 78.859,146.500 78.686 C 146.500 78.512,146.649 78.333,146.833 78.285 C 147.068 78.224,147.167 78.058,147.167 77.722 C 147.167 77.427,147.293 77.168,147.500 77.039 C 147.748 76.884,147.833 76.650,147.833 76.122 C 147.833 75.594,147.918 75.360,148.167 75.205 C 148.445 75.032,148.500 74.817,148.500 73.910 C 148.500 73.097,148.563 72.799,148.750 72.727 C 148.963 72.645,149.000 72.035,149.000 68.649 C 149.000 65.220,148.965 64.667,148.750 64.667 C 148.553 64.667,148.500 64.430,148.498 63.542 C 148.495 62.192,148.373 61.667,148.064 61.667 C 147.906 61.667,147.833 61.457,147.833 61.000 C 147.833 60.444,147.778 60.333,147.500 60.333 C 147.224 60.333,147.167 60.222,147.167 59.692 C 147.167 59.263,147.057 58.952,146.833 58.750 C 146.650 58.584,146.500 58.310,146.500 58.141 C 146.500 57.972,146.396 57.833,146.269 57.833 C 146.136 57.833,145.990 57.584,145.928 57.250 C 145.862 56.901,145.721 56.667,145.576 56.667 C 145.442 56.667,145.333 56.517,145.333 56.333 C 145.333 56.111,145.222 56.000,145.000 56.000 C 144.778 56.000,144.667 55.889,144.667 55.667 C 144.667 55.444,144.556 55.333,144.333 55.333 C 144.111 55.333,144.000 55.222,144.000 55.000 C 144.000 54.815,143.889 54.667,143.750 54.667 C 143.612 54.667,143.500 54.547,143.500 54.401 C 143.500 54.255,143.350 54.096,143.167 54.048 C 142.983 54.000,142.833 53.857,142.833 53.731 C 142.833 53.604,142.683 53.500,142.500 53.500 C 142.278 53.500,142.167 53.389,142.167 53.167 C 142.167 52.981,142.056 52.833,141.917 52.833 C 141.779 52.833,141.517 52.683,141.333 52.500 C 141.150 52.317,140.859 52.167,140.686 52.167 C 140.512 52.167,140.333 52.018,140.285 51.833 C 140.235 51.642,140.058 51.500,139.869 51.500 C 139.689 51.500,139.447 51.387,139.333 51.250 C 139.219 51.112,138.964 51.000,138.767 51.000 C 138.569 51.000,138.279 50.850,138.122 50.667 C 137.925 50.436,137.630 50.333,137.168 50.333 C 136.611 50.333,136.500 50.278,136.500 50.000 C 136.500 49.729,136.389 49.667,135.901 49.667 C 135.555 49.667,135.124 49.526,134.879 49.333 C 134.584 49.101,134.197 48.998,133.603 48.995 C 133.119 48.992,132.610 48.884,132.426 48.745 C 131.935 48.373,119.833 48.378,119.833 48.750 M226.727 48.750 C 226.659 48.927,226.380 49.001,225.774 49.002 C 224.682 49.005,224.167 49.144,224.167 49.436 C 224.167 49.602,223.929 49.667,223.318 49.667 C 222.609 49.667,222.454 49.722,222.382 50.000 C 222.313 50.261,222.154 50.333,221.647 50.333 C 221.111 50.333,221.000 50.391,221.000 50.667 C 221.000 50.937,220.889 51.000,220.411 51.000 C 220.053 51.000,219.787 51.094,219.731 51.240 C 219.680 51.372,219.420 51.528,219.153 51.586 C 218.885 51.645,218.667 51.764,218.667 51.851 C 218.667 51.937,218.479 52.080,218.250 52.167 C 218.021 52.254,217.833 52.439,217.833 52.579 C 217.833 52.722,217.688 52.833,217.500 52.833 C 217.278 52.833,217.167 52.944,217.167 53.167 C 217.167 53.376,217.056 53.500,216.867 53.500 C 216.490 53.500,215.333 54.668,215.333 55.049 C 215.333 55.222,215.203 55.333,215.000 55.333 C 214.778 55.333,214.667 55.444,214.667 55.667 C 214.667 55.852,214.556 56.000,214.417 56.000 C 214.279 56.000,214.167 56.104,214.167 56.231 C 214.167 56.357,214.017 56.500,213.833 56.548 C 213.650 56.596,213.500 56.758,213.500 56.908 C 213.500 57.058,213.350 57.342,213.167 57.538 C 212.983 57.735,212.833 58.032,212.833 58.198 C 212.833 58.364,212.724 58.500,212.591 58.500 C 212.447 58.500,212.305 58.732,212.241 59.072 C 212.182 59.386,212.029 59.684,211.900 59.733 C 211.744 59.793,211.667 60.093,211.667 60.642 C 211.667 61.321,211.610 61.476,211.333 61.548 C 211.051 61.622,211.000 61.776,211.000 62.548 C 211.000 63.321,210.949 63.475,210.667 63.548 C 210.343 63.633,210.333 63.776,210.333 68.417 C 210.333 73.058,210.343 73.200,210.667 73.285 C 210.949 73.359,211.000 73.512,211.000 74.285 C 211.000 75.058,211.051 75.211,211.333 75.285 C 211.610 75.357,211.667 75.512,211.667 76.191 C 211.667 76.740,211.744 77.040,211.900 77.100 C 212.029 77.149,212.182 77.447,212.241 77.762 C 212.305 78.102,212.447 78.333,212.591 78.333 C 212.724 78.333,212.833 78.483,212.833 78.667 C 212.833 78.850,212.983 79.150,213.167 79.333 C 213.350 79.517,213.500 79.786,213.500 79.932 C 213.500 80.078,213.650 80.237,213.833 80.285 C 214.017 80.333,214.167 80.476,214.167 80.603 C 214.167 80.730,214.279 80.833,214.417 80.833 C 214.554 80.833,214.667 80.967,214.667 81.130 C 214.667 81.509,216.499 83.333,216.880 83.333 C 217.056 83.333,217.167 83.462,217.167 83.667 C 217.167 83.882,217.278 84.000,217.481 84.000 C 217.654 84.000,217.833 84.149,217.882 84.333 C 217.934 84.533,218.109 84.667,218.318 84.667 C 218.510 84.667,218.667 84.733,218.667 84.814 C 218.667 84.896,218.929 85.087,219.250 85.239 C 219.571 85.391,219.833 85.587,219.833 85.674 C 219.833 85.762,220.096 85.833,220.417 85.833 C 220.889 85.833,221.000 85.897,221.000 86.167 C 221.000 86.437,221.111 86.500,221.583 86.500 C 221.944 86.500,222.294 86.627,222.500 86.833 C 222.722 87.056,223.056 87.167,223.500 87.167 C 223.957 87.167,224.167 87.239,224.167 87.397 C 224.167 87.689,224.682 87.828,225.774 87.831 C 226.380 87.833,226.659 87.906,226.727 88.083 C 226.810 88.300,227.716 88.333,233.477 88.333 C 239.238 88.333,240.144 88.300,240.227 88.083 C 240.296 87.903,240.579 87.833,241.245 87.833 C 241.944 87.833,242.247 87.753,242.500 87.500 C 242.706 87.294,243.056 87.167,243.417 87.167 C 243.778 87.167,244.127 87.040,244.333 86.833 C 244.523 86.644,244.889 86.500,245.182 86.500 C 245.558 86.500,245.722 86.409,245.785 86.167 C 245.851 85.915,246.012 85.833,246.441 85.833 C 246.776 85.833,247.047 85.737,247.100 85.600 C 247.149 85.471,247.447 85.318,247.762 85.259 C 248.102 85.195,248.333 85.053,248.333 84.909 C 248.333 84.776,248.483 84.667,248.667 84.667 C 248.850 84.667,249.150 84.517,249.333 84.333 C 249.517 84.150,249.817 84.000,250.000 84.000 C 250.222 84.000,250.333 83.889,250.333 83.667 C 250.333 83.397,250.444 83.333,250.917 83.333 C 251.324 83.333,251.500 83.258,251.500 83.083 C 251.500 82.816,251.946 82.764,253.697 82.828 C 255.181 82.882,255.333 82.788,255.333 81.822 C 255.333 81.111,255.288 81.000,255.000 81.000 C 254.731 81.000,254.667 80.889,254.667 80.428 C 254.667 80.002,254.581 79.829,254.333 79.750 C 254.150 79.692,254.000 79.534,254.000 79.400 C 254.000 79.266,253.892 79.115,253.760 79.064 C 253.628 79.014,253.471 78.748,253.411 78.475 C 253.351 78.201,253.204 77.940,253.084 77.894 C 252.964 77.848,252.828 77.665,252.782 77.488 C 252.736 77.311,252.578 77.167,252.432 77.167 C 252.285 77.167,252.167 77.029,252.167 76.859 C 252.167 76.690,252.017 76.416,251.833 76.250 C 251.650 76.084,251.500 75.810,251.500 75.641 C 251.500 75.472,251.387 75.333,251.250 75.333 C 251.112 75.333,251.000 75.195,251.000 75.026 C 251.000 74.857,250.850 74.583,250.667 74.417 C 250.483 74.251,250.333 73.977,250.333 73.808 C 250.333 73.611,250.213 73.500,250.000 73.500 C 249.778 73.500,249.667 73.389,249.667 73.167 C 249.667 72.879,249.556 72.833,248.851 72.833 C 247.895 72.833,247.833 72.925,247.833 74.347 C 247.833 75.138,247.781 75.333,247.568 75.333 C 247.422 75.333,247.263 75.483,247.215 75.667 C 247.167 75.850,247.024 76.000,246.897 76.000 C 246.770 76.000,246.667 76.112,246.667 76.250 C 246.667 76.406,246.509 76.500,246.250 76.500 C 246.021 76.500,245.683 76.650,245.500 76.833 C 245.317 77.017,245.055 77.167,244.918 77.167 C 244.781 77.167,244.576 77.317,244.461 77.500 C 244.323 77.721,244.073 77.833,243.716 77.833 C 243.349 77.833,243.122 77.939,243.000 78.167 C 242.874 78.402,242.651 78.500,242.244 78.500 C 241.842 78.500,241.667 78.576,241.667 78.750 C 241.667 78.939,241.463 79.000,240.835 79.000 C 240.183 79.000,239.958 79.072,239.795 79.333 C 239.611 79.627,239.406 79.667,238.057 79.667 C 236.387 79.667,236.000 79.748,236.000 80.101 C 236.000 80.498,234.082 80.415,233.667 80.000 C 233.383 79.716,233.111 79.667,231.833 79.667 C 230.556 79.667,230.284 79.617,230.000 79.333 C 229.778 79.111,229.444 79.000,229.000 79.000 C 228.519 79.000,228.333 78.931,228.333 78.750 C 228.333 78.579,228.162 78.500,227.790 78.500 C 227.427 78.500,227.178 78.389,227.039 78.167 C 226.924 77.983,226.652 77.833,226.435 77.833 C 226.179 77.833,226.008 77.715,225.952 77.500 C 225.904 77.317,225.749 77.167,225.608 77.167 C 225.467 77.167,225.066 76.905,224.718 76.584 C 224.369 76.264,223.952 76.001,223.792 76.001 C 223.620 76.000,223.500 75.874,223.500 75.692 C 223.500 75.523,223.350 75.249,223.167 75.083 C 222.983 74.917,222.833 74.648,222.833 74.485 C 222.833 74.322,222.683 74.142,222.500 74.083 C 222.317 74.025,222.167 73.870,222.167 73.739 C 222.167 73.607,222.017 73.350,221.833 73.167 C 221.627 72.960,221.500 72.611,221.500 72.250 C 221.500 71.843,221.425 71.667,221.250 71.667 C 221.036 71.667,221.000 71.194,221.000 68.417 C 221.000 65.639,221.036 65.167,221.250 65.167 C 221.425 65.167,221.500 64.991,221.500 64.583 C 221.500 64.222,221.627 63.873,221.833 63.667 C 222.017 63.483,222.167 63.226,222.167 63.095 C 222.167 62.963,222.317 62.808,222.500 62.750 C 222.683 62.692,222.833 62.527,222.833 62.384 C 222.833 62.034,225.111 59.852,225.721 59.617 C 225.874 59.559,226.000 59.396,226.000 59.255 C 226.000 59.094,226.153 59.000,226.415 59.000 C 226.650 59.000,226.921 58.855,227.039 58.667 C 227.178 58.444,227.427 58.333,227.790 58.333 C 228.162 58.333,228.333 58.254,228.333 58.083 C 228.333 57.913,228.506 57.833,228.875 57.831 C 229.667 57.828,230.167 57.660,230.167 57.397 C 230.167 57.217,230.513 57.167,231.750 57.167 C 233.111 57.167,233.380 57.120,233.667 56.833 C 234.082 56.418,236.000 56.335,236.000 56.732 C 236.000 57.089,236.389 57.167,238.180 57.167 C 239.477 57.167,239.833 57.216,239.833 57.397 C 239.833 57.660,240.333 57.828,241.125 57.831 C 241.494 57.833,241.667 57.913,241.667 58.083 C 241.667 58.258,241.843 58.333,242.250 58.333 C 242.611 58.333,242.960 58.460,243.167 58.667 C 243.369 58.869,243.722 59.000,244.064 59.000 C 244.488 59.000,244.649 59.083,244.715 59.333 C 244.763 59.517,244.942 59.667,245.114 59.667 C 245.286 59.667,245.554 59.817,245.711 60.000 C 245.868 60.183,246.147 60.333,246.332 60.333 C 246.518 60.333,246.667 60.444,246.667 60.583 C 246.667 60.721,246.770 60.833,246.897 60.833 C 247.024 60.833,247.167 60.983,247.215 61.167 C 247.263 61.350,247.422 61.500,247.568 61.500 C 247.779 61.500,247.833 61.689,247.833 62.417 C 247.833 63.203,247.878 63.333,248.147 63.333 C 248.321 63.333,248.500 63.482,248.548 63.667 C 248.667 64.119,249.497 64.131,249.614 63.682 C 249.660 63.507,249.841 63.327,250.015 63.281 C 250.238 63.223,250.333 63.050,250.333 62.702 C 250.333 62.346,250.428 62.181,250.667 62.118 C 250.850 62.070,251.000 61.912,251.000 61.766 C 251.000 61.620,251.112 61.500,251.250 61.500 C 251.425 61.500,251.500 61.324,251.500 60.917 C 251.500 60.444,251.563 60.333,251.833 60.333 C 252.049 60.333,252.167 60.222,252.167 60.019 C 252.167 59.846,252.316 59.667,252.500 59.618 C 252.683 59.570,252.833 59.409,252.833 59.259 C 252.833 59.109,252.983 58.825,253.167 58.628 C 253.350 58.431,253.500 58.180,253.500 58.070 C 253.500 57.959,253.612 57.826,253.750 57.773 C 253.887 57.720,254.000 57.562,254.000 57.422 C 254.000 57.282,254.150 57.017,254.333 56.833 C 254.517 56.650,254.667 56.350,254.667 56.167 C 254.667 55.944,254.778 55.833,255.000 55.833 C 255.288 55.833,255.333 55.722,255.333 55.011 C 255.333 54.047,255.197 53.962,253.707 54.002 C 251.836 54.052,251.500 54.013,251.500 53.750 C 251.500 53.575,251.324 53.500,250.917 53.500 C 250.444 53.500,250.333 53.437,250.333 53.167 C 250.333 52.958,250.222 52.833,250.037 52.833 C 249.874 52.833,249.612 52.683,249.455 52.500 C 249.298 52.317,249.036 52.167,248.872 52.167 C 248.708 52.167,248.446 52.017,248.289 51.833 C 248.132 51.650,247.815 51.500,247.585 51.500 C 247.324 51.500,247.167 51.406,247.167 51.250 C 247.167 51.071,246.984 51.000,246.519 51.000 C 246.012 51.000,245.853 50.928,245.785 50.667 C 245.722 50.424,245.558 50.333,245.182 50.333 C 244.889 50.333,244.523 50.190,244.333 50.000 C 244.127 49.794,243.778 49.667,243.417 49.667 C 243.056 49.667,242.706 49.540,242.500 49.333 C 242.242 49.075,241.944 49.000,241.184 49.000 C 240.465 49.000,240.177 48.933,240.106 48.750 C 240.023 48.534,239.124 48.500,233.417 48.500 C 227.709 48.500,226.810 48.534,226.727 48.750 M153.708 49.110 C 153.324 49.266,153.438 50.833,153.833 50.833 C 154.056 50.833,154.167 50.944,154.167 51.167 C 154.167 51.437,154.278 51.500,154.750 51.500 C 155.222 51.500,155.333 51.563,155.333 51.833 C 155.333 52.056,155.444 52.167,155.667 52.167 C 155.998 52.167,156.000 52.278,156.000 68.417 C 156.000 84.556,155.998 84.667,155.667 84.667 C 155.444 84.667,155.333 84.778,155.333 85.000 C 155.333 85.270,155.222 85.333,154.750 85.333 C 154.278 85.333,154.167 85.397,154.167 85.667 C 154.167 85.889,154.056 86.000,153.833 86.000 C 153.301 86.000,153.339 87.621,153.875 87.752 C 154.081 87.802,157.287 87.822,161.000 87.796 L 167.750 87.750 167.800 86.875 C 167.846 86.087,167.817 86.000,167.509 86.000 C 167.278 86.000,167.167 85.892,167.167 85.667 C 167.167 85.397,167.056 85.333,166.583 85.333 C 166.127 85.333,166.000 85.266,166.000 85.026 C 166.000 84.857,165.850 84.583,165.667 84.417 C 165.341 84.122,165.333 83.903,165.333 74.698 C 165.333 65.292,165.334 65.282,165.667 65.583 C 165.850 65.749,166.000 66.023,166.000 66.192 C 166.000 66.389,166.120 66.500,166.333 66.500 C 166.604 66.500,166.667 66.611,166.667 67.089 C 166.667 67.458,166.760 67.713,166.917 67.773 C 167.054 67.826,167.167 68.005,167.167 68.171 C 167.167 68.651,167.350 69.000,167.601 69.000 C 167.750 69.000,167.833 69.186,167.833 69.516 C 167.833 69.891,167.924 70.055,168.167 70.118 C 168.351 70.167,168.500 70.346,168.500 70.519 C 168.500 70.692,168.650 70.983,168.833 71.167 C 169.017 71.350,169.167 71.650,169.167 71.833 C 169.167 72.019,169.278 72.167,169.417 72.167 C 169.585 72.167,169.667 72.335,169.667 72.682 C 169.667 73.058,169.757 73.222,170.000 73.285 C 170.236 73.347,170.333 73.512,170.333 73.851 C 170.333 74.150,170.459 74.409,170.667 74.539 C 170.850 74.653,171.000 74.867,171.000 75.014 C 171.000 75.161,171.150 75.417,171.333 75.583 C 171.517 75.749,171.667 76.023,171.667 76.192 C 171.667 76.362,171.779 76.500,171.917 76.500 C 172.093 76.500,172.167 76.678,172.167 77.099 C 172.167 77.558,172.245 77.718,172.500 77.785 C 172.739 77.848,172.833 78.012,172.833 78.368 C 172.833 78.724,172.928 78.889,173.167 78.952 C 173.406 79.014,173.500 79.179,173.500 79.535 C 173.500 79.891,173.594 80.056,173.833 80.118 C 174.045 80.174,174.167 80.346,174.167 80.591 C 174.167 80.803,174.279 81.089,174.417 81.226 C 174.554 81.364,174.667 81.601,174.667 81.754 C 174.667 81.906,174.817 82.070,175.000 82.118 C 175.250 82.184,175.333 82.346,175.333 82.769 C 175.333 83.222,175.399 83.333,175.667 83.333 C 175.935 83.333,176.000 83.444,176.000 83.905 C 176.000 84.331,176.085 84.505,176.333 84.583 C 176.517 84.642,176.667 84.829,176.667 84.999 C 176.667 85.170,176.779 85.422,176.917 85.560 C 177.054 85.697,177.167 85.934,177.167 86.087 C 177.167 86.240,177.313 86.403,177.491 86.449 C 177.724 86.510,177.830 86.705,177.866 87.142 L 177.917 87.750 178.748 87.750 C 179.422 87.750,179.590 87.692,179.638 87.443 C 179.670 87.274,179.840 86.993,180.015 86.818 C 180.190 86.643,180.333 86.350,180.333 86.167 C 180.333 85.983,180.438 85.833,180.566 85.833 C 180.820 85.833,181.000 85.483,181.000 84.986 C 181.000 84.811,181.112 84.667,181.250 84.667 C 181.389 84.667,181.500 84.519,181.500 84.333 C 181.500 84.150,181.650 83.850,181.833 83.667 C 182.017 83.483,182.167 83.226,182.167 83.095 C 182.167 82.963,182.317 82.808,182.500 82.750 C 182.745 82.672,182.833 82.498,182.833 82.092 C 182.833 81.679,182.918 81.517,183.167 81.452 C 183.350 81.404,183.500 81.240,183.500 81.087 C 183.500 80.934,183.612 80.697,183.750 80.560 C 183.887 80.422,184.000 80.170,184.000 79.999 C 184.000 79.829,184.150 79.642,184.333 79.583 C 184.581 79.505,184.667 79.331,184.667 78.905 C 184.667 78.444,184.731 78.333,185.000 78.333 C 185.194 78.333,185.333 78.222,185.333 78.068 C 185.333 77.922,185.483 77.612,185.667 77.379 C 185.850 77.146,186.000 76.861,186.000 76.745 C 186.000 76.630,186.112 76.492,186.250 76.440 C 186.393 76.385,186.500 76.136,186.500 75.858 C 186.500 75.512,186.596 75.347,186.833 75.285 C 187.089 75.218,187.167 75.058,187.167 74.599 C 187.167 74.111,187.229 74.000,187.500 74.000 C 187.722 74.000,187.833 73.889,187.833 73.667 C 187.833 73.483,187.942 73.333,188.076 73.333 C 188.221 73.333,188.362 73.099,188.428 72.750 C 188.490 72.416,188.636 72.167,188.769 72.167 C 188.927 72.167,189.000 71.958,189.000 71.500 C 189.000 70.944,189.056 70.833,189.333 70.833 C 189.549 70.833,189.667 70.722,189.667 70.519 C 189.667 70.346,189.816 70.167,190.000 70.118 C 190.239 70.056,190.333 69.891,190.333 69.535 C 190.333 69.179,190.428 69.014,190.667 68.952 C 190.909 68.888,191.000 68.724,191.000 68.349 C 191.000 68.002,191.082 67.833,191.250 67.833 C 191.387 67.833,191.500 67.688,191.500 67.511 C 191.500 67.334,191.650 67.142,191.833 67.083 C 192.081 67.005,192.167 66.831,192.167 66.405 C 192.167 65.944,192.231 65.833,192.500 65.833 C 192.829 65.833,192.833 65.944,192.833 75.158 L 192.833 84.483 192.453 84.894 C 192.243 85.119,191.850 85.330,191.578 85.360 C 191.086 85.416,191.083 85.422,191.034 86.625 L 190.985 87.833 198.159 87.833 L 205.333 87.833 205.333 86.783 C 205.333 85.617,205.164 85.333,204.467 85.333 C 204.159 85.333,204.000 85.247,204.000 85.078 C 204.000 84.938,203.887 84.780,203.750 84.727 C 203.370 84.581,203.370 52.252,203.750 52.106 C 203.887 52.054,204.000 51.896,204.000 51.755 C 204.000 51.576,204.169 51.500,204.566 51.500 C 205.244 51.500,205.333 51.323,205.333 49.985 L 205.333 48.997 196.958 49.040 L 188.583 49.083 188.533 49.958 C 188.488 50.746,188.517 50.833,188.825 50.833 C 189.056 50.833,189.167 50.942,189.167 51.167 C 189.167 51.361,189.278 51.500,189.432 51.500 C 189.578 51.500,189.737 51.650,189.785 51.833 C 189.833 52.017,189.976 52.167,190.103 52.167 C 190.230 52.167,190.333 52.317,190.333 52.500 C 190.333 52.683,190.229 52.833,190.101 52.833 C 189.832 52.833,189.667 53.188,189.667 53.764 C 189.667 54.011,189.570 54.167,189.417 54.167 C 189.242 54.167,189.167 54.343,189.167 54.750 C 189.167 55.222,189.103 55.333,188.833 55.333 C 188.566 55.333,188.500 55.444,188.500 55.897 C 188.500 56.321,188.417 56.483,188.167 56.548 C 187.978 56.598,187.833 56.776,187.833 56.959 C 187.833 57.136,187.683 57.417,187.500 57.583 C 187.317 57.749,187.167 58.023,187.167 58.192 C 187.167 58.362,187.054 58.500,186.917 58.500 C 186.742 58.500,186.667 58.676,186.667 59.083 C 186.667 59.556,186.603 59.667,186.333 59.667 C 186.056 59.667,186.000 59.778,186.000 60.333 C 186.000 60.889,185.944 61.000,185.667 61.000 C 185.454 61.000,185.333 61.111,185.333 61.308 C 185.333 61.477,185.183 61.751,185.000 61.917 C 184.817 62.083,184.667 62.357,184.667 62.526 C 184.667 62.695,184.554 62.833,184.417 62.833 C 184.244 62.833,184.167 63.007,184.167 63.397 C 184.167 63.821,184.084 63.983,183.833 64.048 C 183.578 64.115,183.500 64.276,183.500 64.734 C 183.500 65.222,183.438 65.333,183.167 65.333 C 182.944 65.333,182.833 65.444,182.833 65.667 C 182.833 65.850,182.724 66.000,182.591 66.000 C 182.447 66.000,182.305 66.232,182.241 66.572 C 182.182 66.886,182.029 67.184,181.900 67.233 C 181.761 67.287,181.667 67.560,181.667 67.911 C 181.667 68.389,181.604 68.500,181.333 68.500 C 181.120 68.500,181.000 68.611,181.000 68.808 C 181.000 68.977,180.850 69.251,180.667 69.417 C 180.483 69.583,180.333 69.849,180.333 70.008 C 180.333 70.167,180.221 70.341,180.083 70.394 C 179.946 70.446,179.833 70.604,179.833 70.745 C 179.833 70.906,179.680 71.000,179.417 71.000 C 179.053 71.000,179.000 70.927,179.000 70.425 C 179.000 70.109,178.905 69.790,178.788 69.717 C 178.672 69.643,178.486 69.377,178.375 69.125 C 178.264 68.873,178.097 68.667,178.004 68.667 C 177.910 68.667,177.833 68.479,177.833 68.250 C 177.833 67.944,177.744 67.833,177.500 67.833 C 177.229 67.833,177.167 67.722,177.167 67.234 C 177.167 66.776,177.089 66.615,176.833 66.548 C 176.583 66.483,176.500 66.321,176.500 65.897 C 176.500 65.527,176.420 65.333,176.269 65.333 C 176.136 65.333,175.990 65.084,175.928 64.750 C 175.862 64.401,175.721 64.167,175.576 64.167 C 175.442 64.167,175.333 64.017,175.333 63.833 C 175.333 63.611,175.222 63.500,175.000 63.500 C 174.722 63.500,174.667 63.389,174.667 62.833 C 174.667 62.278,174.611 62.167,174.333 62.167 C 174.063 62.167,174.000 62.056,174.000 61.583 C 174.000 61.176,173.925 61.000,173.750 61.000 C 173.594 61.000,173.500 60.843,173.500 60.583 C 173.500 60.354,173.350 60.017,173.167 59.833 C 172.983 59.650,172.833 59.388,172.833 59.251 C 172.833 59.115,172.683 58.909,172.500 58.795 C 172.317 58.680,172.167 58.417,172.167 58.210 C 172.167 57.944,172.068 57.833,171.833 57.833 C 171.563 57.833,171.500 57.722,171.500 57.245 C 171.500 56.875,171.407 56.620,171.250 56.560 C 171.112 56.508,171.000 56.328,171.000 56.162 C 171.000 55.682,170.817 55.333,170.566 55.333 C 170.438 55.333,170.333 55.189,170.333 55.014 C 170.333 54.517,170.154 54.167,169.899 54.167 C 169.720 54.167,169.667 53.862,169.667 52.833 L 169.667 51.500 170.240 51.500 C 170.858 51.500,171.115 50.825,170.972 49.574 L 170.917 49.083 162.417 49.054 C 157.742 49.038,153.823 49.063,153.708 49.110 M272.944 49.111 C 272.396 49.660,273.081 51.500,273.833 51.500 C 274.022 51.500,274.167 51.611,274.167 51.755 C 274.167 51.896,274.279 52.054,274.417 52.106 C 274.755 52.236,274.751 53.958,274.411 54.407 C 274.277 54.585,274.167 55.016,274.167 55.365 C 274.167 55.889,274.108 56.000,273.833 56.000 C 273.563 56.000,273.500 56.111,273.500 56.583 C 273.500 57.056,273.437 57.167,273.167 57.167 C 272.942 57.167,272.833 57.278,272.833 57.507 C 272.833 57.694,272.683 58.008,272.500 58.205 C 272.317 58.402,272.164 58.680,272.161 58.823 C 272.158 58.966,272.046 59.229,271.911 59.407 C 271.777 59.585,271.667 59.866,271.667 60.032 C 271.667 60.198,271.517 60.483,271.333 60.667 C 271.150 60.850,271.000 61.138,271.000 61.308 C 271.000 61.477,270.850 61.751,270.667 61.917 C 270.483 62.083,270.333 62.360,270.333 62.533 C 270.333 62.706,270.183 63.008,270.000 63.205 C 269.817 63.402,269.664 63.680,269.661 63.823 C 269.658 63.966,269.546 64.229,269.411 64.407 C 269.277 64.585,269.167 64.866,269.167 65.032 C 269.167 65.198,269.017 65.483,268.833 65.667 C 268.650 65.850,268.500 66.138,268.500 66.308 C 268.500 66.477,268.350 66.751,268.167 66.917 C 267.983 67.083,267.833 67.360,267.833 67.533 C 267.833 67.706,267.683 68.008,267.500 68.205 C 267.317 68.402,267.164 68.680,267.161 68.823 C 267.158 68.966,267.046 69.229,266.911 69.407 C 266.777 69.585,266.667 69.866,266.667 70.032 C 266.667 70.198,266.517 70.483,266.333 70.667 C 266.150 70.850,266.000 71.138,266.000 71.308 C 266.000 71.477,265.850 71.751,265.667 71.917 C 265.483 72.083,265.333 72.349,265.333 72.508 C 265.333 72.667,265.225 72.839,265.093 72.890 C 264.960 72.941,264.802 73.249,264.741 73.575 C 264.677 73.915,264.531 74.167,264.398 74.167 C 264.246 74.167,264.167 74.361,264.167 74.731 C 264.167 75.154,264.084 75.316,263.833 75.382 C 263.578 75.448,263.500 75.609,263.500 76.068 C 263.500 76.469,263.423 76.667,263.268 76.667 C 263.016 76.667,262.833 77.016,262.833 77.496 C 262.833 77.662,262.725 77.839,262.593 77.890 C 262.460 77.941,262.302 78.249,262.241 78.575 C 262.177 78.915,262.031 79.167,261.898 79.167 C 261.746 79.167,261.667 79.361,261.667 79.731 C 261.667 80.154,261.584 80.316,261.333 80.382 C 261.081 80.448,261.000 80.609,261.000 81.048 C 261.000 81.488,260.919 81.649,260.667 81.715 C 260.424 81.778,260.333 81.942,260.333 82.318 C 260.333 82.658,260.251 82.833,260.091 82.833 C 259.947 82.833,259.805 83.065,259.741 83.405 C 259.682 83.720,259.529 84.017,259.400 84.067 C 259.272 84.116,259.167 84.262,259.167 84.392 C 259.167 84.522,259.017 84.667,258.833 84.715 C 258.650 84.763,258.500 84.922,258.500 85.068 C 258.500 85.260,258.339 85.333,257.917 85.333 C 257.494 85.333,257.333 85.407,257.333 85.599 C 257.333 85.745,257.183 85.904,257.000 85.952 C 256.719 86.025,256.667 86.179,256.667 86.936 L 256.667 87.833 264.153 87.833 C 268.271 87.833,271.758 87.788,271.903 87.732 C 272.322 87.571,272.276 86.000,271.853 86.000 C 271.679 86.000,271.500 85.851,271.452 85.667 C 271.388 85.424,271.224 85.333,270.849 85.333 C 270.488 85.333,270.333 85.254,270.333 85.068 C 270.333 84.922,270.183 84.763,270.000 84.715 C 269.739 84.647,269.667 84.488,269.667 83.981 C 269.667 83.444,269.724 83.333,270.000 83.333 C 270.270 83.333,270.333 83.222,270.333 82.750 C 270.333 82.363,270.411 82.167,270.566 82.167 C 270.834 82.167,271.000 81.812,271.000 81.236 C 271.000 80.989,271.097 80.833,271.250 80.833 C 271.423 80.833,271.500 80.660,271.500 80.269 C 271.500 79.846,271.583 79.684,271.833 79.618 C 272.089 79.552,272.167 79.391,272.167 78.932 L 272.167 78.333 280.667 78.333 C 289.056 78.333,289.167 78.338,289.167 78.667 C 289.167 78.852,289.278 79.000,289.417 79.000 C 289.593 79.000,289.667 79.178,289.667 79.599 C 289.667 80.058,289.745 80.218,290.000 80.285 C 290.239 80.348,290.333 80.512,290.333 80.868 C 290.333 81.224,290.428 81.389,290.667 81.452 C 290.914 81.516,291.000 81.679,291.000 82.083 C 291.000 82.488,291.086 82.650,291.333 82.715 C 291.630 82.792,291.667 82.942,291.667 84.068 L 291.667 85.333 291.068 85.333 C 290.609 85.333,290.448 85.411,290.382 85.667 C 290.332 85.855,290.154 86.000,289.972 86.000 C 289.687 86.000,289.655 86.103,289.700 86.875 L 289.750 87.750 298.125 87.793 L 306.500 87.836 306.500 86.918 C 306.500 86.232,306.440 86.000,306.261 86.000 C 306.130 86.000,305.975 85.850,305.917 85.667 C 305.839 85.422,305.664 85.333,305.258 85.333 C 304.846 85.333,304.683 85.249,304.618 85.000 C 304.570 84.817,304.412 84.667,304.266 84.667 C 304.120 84.667,304.000 84.552,304.000 84.411 C 304.000 84.271,303.887 84.113,303.750 84.060 C 303.612 84.008,303.500 83.860,303.500 83.732 C 303.500 83.604,303.350 83.500,303.167 83.500 C 302.895 83.500,302.833 83.389,302.833 82.901 C 302.833 82.442,302.755 82.282,302.500 82.215 C 302.250 82.149,302.167 81.988,302.167 81.564 C 302.167 81.111,302.101 81.000,301.833 81.000 C 301.563 81.000,301.500 80.889,301.500 80.411 C 301.500 80.060,301.406 79.787,301.266 79.733 C 301.138 79.684,300.984 79.386,300.925 79.072 C 300.862 78.732,300.720 78.500,300.576 78.500 C 300.442 78.500,300.333 78.350,300.333 78.167 C 300.333 77.983,300.183 77.683,300.000 77.500 C 299.817 77.317,299.667 77.028,299.667 76.859 C 299.667 76.690,299.517 76.416,299.333 76.250 C 299.150 76.084,299.000 75.810,299.000 75.641 C 299.000 75.472,298.887 75.333,298.750 75.333 C 298.574 75.333,298.500 75.156,298.500 74.734 C 298.500 74.276,298.422 74.115,298.167 74.048 C 297.928 73.986,297.833 73.821,297.833 73.465 C 297.833 73.109,297.739 72.944,297.500 72.882 C 297.251 72.817,297.167 72.654,297.167 72.242 C 297.167 71.836,297.078 71.661,296.833 71.583 C 296.599 71.509,296.500 71.331,296.500 70.984 C 296.500 70.698,296.394 70.449,296.250 70.394 C 296.112 70.341,296.000 70.167,296.000 70.008 C 296.000 69.849,295.850 69.583,295.667 69.417 C 295.483 69.251,295.333 68.977,295.333 68.808 C 295.333 68.611,295.213 68.500,295.000 68.500 C 294.722 68.500,294.667 68.389,294.667 67.833 C 294.667 67.278,294.611 67.167,294.333 67.167 C 294.063 67.167,294.000 67.056,294.000 66.583 C 294.000 66.176,293.925 66.000,293.750 66.000 C 293.597 66.000,293.500 65.844,293.500 65.597 C 293.500 65.022,293.334 64.667,293.066 64.667 C 292.917 64.667,292.833 64.481,292.833 64.151 C 292.833 63.776,292.743 63.612,292.500 63.548 C 292.266 63.487,292.167 63.321,292.167 62.990 C 292.167 62.723,292.034 62.425,291.860 62.301 C 291.692 62.181,291.503 61.877,291.440 61.625 C 291.378 61.373,291.253 61.167,291.163 61.167 C 291.074 61.167,291.000 61.010,291.000 60.818 C 291.000 60.609,290.866 60.434,290.667 60.382 C 290.414 60.316,290.333 60.154,290.333 59.715 C 290.333 59.276,290.253 59.114,290.000 59.048 C 289.750 58.983,289.667 58.821,289.667 58.397 C 289.667 57.944,289.601 57.833,289.333 57.833 C 289.063 57.833,289.000 57.722,289.000 57.245 C 289.000 56.894,288.906 56.620,288.766 56.567 C 288.638 56.517,288.484 56.220,288.425 55.905 C 288.362 55.565,288.220 55.333,288.076 55.333 C 287.911 55.333,287.833 55.151,287.833 54.761 C 287.833 54.336,287.748 54.162,287.500 54.083 C 287.222 53.995,287.167 53.831,287.167 53.092 C 287.167 52.346,287.219 52.192,287.500 52.118 C 287.683 52.070,287.833 51.912,287.833 51.766 C 287.833 51.614,287.972 51.500,288.155 51.500 C 288.746 51.500,289.000 51.045,289.000 49.988 L 289.000 49.000 281.028 49.000 C 276.643 49.000,273.006 49.050,272.944 49.111 M308.500 50.050 C 308.500 51.216,308.670 51.500,309.367 51.500 C 309.654 51.500,309.833 51.589,309.833 51.732 C 309.833 51.860,309.946 52.008,310.083 52.060 C 310.303 52.145,310.333 54.122,310.333 68.469 C 310.333 86.527,310.406 85.333,309.312 85.333 C 308.672 85.333,308.500 85.640,308.500 86.783 L 308.500 87.833 315.674 87.833 L 322.848 87.833 322.799 86.625 L 322.750 85.417 322.125 85.365 C 321.635 85.324,321.500 85.243,321.500 84.990 C 321.500 84.812,321.387 84.667,321.250 84.667 C 321.032 84.667,321.000 83.861,321.000 78.417 L 321.000 72.167 325.083 72.167 C 328.639 72.167,329.167 72.200,329.167 72.422 C 329.167 72.562,329.279 72.720,329.417 72.773 C 329.554 72.826,329.667 72.959,329.667 73.070 C 329.667 73.180,329.817 73.431,330.000 73.628 C 330.183 73.825,330.333 74.109,330.333 74.259 C 330.333 74.409,330.483 74.570,330.667 74.618 C 330.851 74.667,331.000 74.846,331.000 75.019 C 331.000 75.222,331.118 75.333,331.333 75.333 C 331.593 75.333,331.667 75.444,331.667 75.839 C 331.667 76.118,331.771 76.384,331.900 76.433 C 332.029 76.483,332.172 76.668,332.218 76.845 C 332.264 77.022,332.422 77.167,332.568 77.167 C 332.722 77.167,332.833 77.306,332.833 77.499 C 332.833 77.681,332.983 77.924,333.167 78.039 C 333.350 78.153,333.500 78.416,333.500 78.623 C 333.500 78.889,333.598 79.000,333.833 79.000 C 334.056 79.000,334.167 79.111,334.167 79.333 C 334.167 79.519,334.278 79.667,334.417 79.667 C 334.554 79.667,334.667 79.811,334.667 79.986 C 334.667 80.483,334.846 80.833,335.101 80.833 C 335.229 80.833,335.333 80.983,335.333 81.167 C 335.333 81.389,335.444 81.500,335.667 81.500 C 335.934 81.500,336.000 81.611,336.000 82.064 C 336.000 82.488,336.083 82.649,336.333 82.715 C 336.517 82.763,336.667 82.922,336.667 83.068 C 336.667 83.214,336.769 83.333,336.894 83.333 C 337.037 83.333,337.159 83.610,337.224 84.079 C 337.351 85.010,337.233 85.333,336.766 85.333 C 336.173 85.333,336.000 85.662,336.000 86.783 L 336.000 87.833 344.550 87.833 C 350.978 87.833,353.150 87.784,353.300 87.633 C 353.645 87.288,353.553 86.149,353.172 86.050 C 352.992 86.003,352.799 85.822,352.744 85.649 C 352.670 85.414,352.486 85.333,352.029 85.333 C 351.594 85.333,351.352 85.236,351.205 85.000 C 351.091 84.817,350.857 84.667,350.685 84.667 C 350.512 84.667,350.333 84.517,350.285 84.333 C 350.237 84.150,350.078 84.000,349.932 84.000 C 349.786 84.000,349.667 83.887,349.667 83.750 C 349.667 83.611,349.519 83.500,349.333 83.500 C 349.111 83.500,349.000 83.389,349.000 83.167 C 349.000 82.981,348.889 82.833,348.750 82.833 C 348.613 82.833,348.500 82.693,348.500 82.520 C 348.500 82.348,348.380 82.108,348.233 81.986 C 348.086 81.864,347.900 81.592,347.820 81.382 C 347.740 81.172,347.561 81.000,347.421 81.000 C 347.278 81.000,347.167 80.854,347.167 80.667 C 347.167 80.444,347.056 80.333,346.833 80.333 C 346.650 80.333,346.500 80.223,346.500 80.088 C 346.500 79.670,345.812 78.500,345.567 78.500 C 345.438 78.500,345.333 78.350,345.333 78.167 C 345.333 77.944,345.222 77.833,345.000 77.833 C 344.730 77.833,344.667 77.722,344.667 77.250 C 344.667 76.827,344.593 76.667,344.401 76.667 C 344.255 76.667,344.096 76.517,344.048 76.333 C 344.000 76.150,343.857 76.000,343.731 76.000 C 343.604 76.000,343.500 75.862,343.500 75.692 C 343.500 75.523,343.350 75.249,343.167 75.083 C 342.983 74.917,342.833 74.648,342.833 74.485 C 342.833 74.322,342.683 74.142,342.500 74.083 C 342.317 74.025,342.167 73.870,342.167 73.739 C 342.167 73.607,342.017 73.500,341.833 73.500 C 341.575 73.500,341.500 73.389,341.500 73.009 C 341.500 72.710,341.330 72.334,341.066 72.050 L 340.632 71.583 341.399 71.533 C 342.031 71.491,342.167 71.424,342.167 71.158 C 342.167 70.876,342.286 70.833,343.083 70.833 C 343.787 70.833,344.000 70.775,344.000 70.583 C 344.000 70.407,344.178 70.333,344.599 70.333 C 345.058 70.333,345.218 70.255,345.285 70.000 C 345.351 69.750,345.512 69.667,345.936 69.667 C 346.389 69.667,346.500 69.601,346.500 69.333 C 346.500 69.111,346.611 69.000,346.833 69.000 C 347.288 69.000,349.000 67.305,349.000 66.855 C 349.000 66.611,349.104 66.500,349.333 66.500 C 349.602 66.500,349.667 66.389,349.667 65.928 C 349.667 65.502,349.752 65.329,350.000 65.250 C 350.276 65.162,350.333 64.998,350.333 64.294 C 350.333 63.717,350.427 63.339,350.625 63.121 C 351.111 62.585,351.154 58.290,350.680 57.649 C 350.427 57.307,350.333 56.930,350.333 56.257 C 350.333 55.444,350.293 55.333,350.000 55.333 C 349.729 55.333,349.667 55.222,349.667 54.734 C 349.667 54.276,349.589 54.115,349.333 54.048 C 349.096 53.986,349.000 53.821,349.000 53.475 C 349.000 53.203,348.893 52.948,348.756 52.896 C 348.622 52.845,348.467 52.659,348.412 52.485 C 348.356 52.310,348.203 52.167,348.072 52.167 C 347.941 52.167,347.833 52.105,347.833 52.030 C 347.833 51.836,346.522 51.000,346.219 51.000 C 346.082 51.000,345.930 50.850,345.882 50.667 C 345.818 50.422,345.654 50.333,345.268 50.333 C 344.947 50.333,344.629 50.203,344.455 50.000 C 344.229 49.735,343.964 49.667,343.168 49.667 C 342.423 49.667,342.167 49.607,342.167 49.434 C 342.167 49.011,341.741 49.000,325.070 49.000 L 308.500 49.000 308.500 50.050 M77.000 56.833 C 77.284 57.117,77.556 57.167,78.833 57.167 C 80.004 57.167,80.333 57.218,80.333 57.399 C 80.333 57.677,80.692 57.833,81.329 57.833 C 81.592 57.833,81.840 57.943,81.894 58.083 C 81.946 58.221,82.177 58.333,82.406 58.333 C 82.651 58.333,82.895 58.470,83.000 58.667 C 83.117 58.885,83.349 59.000,83.673 59.000 C 84.056 59.000,84.167 59.075,84.167 59.333 C 84.167 59.517,84.238 59.667,84.326 59.667 C 84.532 59.667,85.333 60.468,85.333 60.674 C 85.333 60.762,85.483 60.833,85.667 60.833 C 85.889 60.833,86.000 60.944,86.000 61.167 C 86.000 61.389,86.111 61.500,86.333 61.500 C 86.556 61.500,86.667 61.611,86.667 61.833 C 86.667 62.019,86.778 62.167,86.917 62.167 C 87.091 62.167,87.167 62.343,87.167 62.750 C 87.167 63.222,87.230 63.333,87.500 63.333 C 87.790 63.333,87.833 63.444,87.833 64.182 C 87.833 64.891,87.888 65.046,88.167 65.118 C 88.600 65.232,88.699 71.667,88.268 71.667 C 87.968 71.667,87.833 72.033,87.833 72.847 C 87.833 73.295,87.760 73.500,87.600 73.500 C 87.354 73.500,86.667 74.670,86.667 75.088 C 86.667 75.223,86.517 75.333,86.333 75.333 C 86.111 75.333,86.000 75.444,86.000 75.667 C 86.000 75.889,85.889 76.000,85.667 76.000 C 85.483 76.000,85.333 76.072,85.333 76.159 C 85.333 76.366,84.532 77.167,84.326 77.167 C 84.238 77.167,84.167 77.317,84.167 77.500 C 84.167 77.758,84.056 77.833,83.673 77.833 C 83.349 77.833,83.117 77.948,83.000 78.167 C 82.902 78.350,82.680 78.500,82.506 78.500 C 82.332 78.500,82.089 78.601,81.966 78.724 C 81.843 78.848,81.458 79.002,81.112 79.067 C 80.766 79.132,80.441 79.293,80.390 79.426 C 80.320 79.609,79.966 79.667,78.905 79.667 C 77.682 79.667,77.490 79.707,77.333 80.000 C 77.110 80.417,75.167 80.509,75.167 80.103 C 75.167 79.793,74.641 79.672,73.285 79.669 C 72.385 79.667,72.079 79.598,71.795 79.333 C 71.586 79.139,71.207 79.000,70.885 79.000 C 70.506 79.000,70.333 78.922,70.333 78.750 C 70.333 78.569,70.148 78.500,69.667 78.500 C 69.111 78.500,69.000 78.444,69.000 78.167 C 69.000 77.983,68.890 77.833,68.756 77.833 C 68.622 77.833,68.431 77.683,68.333 77.500 C 68.235 77.317,68.057 77.167,67.937 77.167 C 67.817 77.167,67.583 77.017,67.417 76.833 C 67.251 76.650,66.977 76.500,66.808 76.500 C 66.638 76.500,66.500 76.394,66.500 76.265 C 66.500 75.974,65.658 74.667,65.470 74.667 C 65.395 74.667,65.333 74.547,65.333 74.401 C 65.333 74.255,65.183 74.096,65.000 74.048 C 64.750 73.983,64.667 73.821,64.667 73.397 C 64.667 73.056,64.535 72.702,64.333 72.500 C 64.081 72.247,64.000 71.944,64.000 71.250 C 64.000 70.546,63.942 70.333,63.750 70.333 C 63.542 70.333,63.500 70.009,63.500 68.417 C 63.500 66.824,63.542 66.500,63.750 66.500 C 63.942 66.500,64.000 66.287,64.000 65.583 C 64.000 64.889,64.081 64.586,64.333 64.333 C 64.540 64.127,64.667 63.778,64.667 63.417 C 64.667 63.004,64.741 62.833,64.922 62.833 C 65.062 62.833,65.225 62.708,65.284 62.554 C 65.343 62.401,65.509 62.147,65.654 61.991 C 66.207 61.392,66.500 60.921,66.500 60.633 C 66.500 60.444,66.624 60.333,66.833 60.333 C 67.049 60.333,67.167 60.222,67.167 60.019 C 67.167 59.791,67.328 59.674,67.750 59.594 C 68.099 59.529,68.333 59.388,68.333 59.242 C 68.333 59.109,68.483 59.000,68.667 59.000 C 68.889 59.000,69.000 58.889,69.000 58.667 C 69.000 58.398,69.111 58.333,69.575 58.333 C 69.891 58.333,70.210 58.232,70.283 58.109 C 70.357 57.985,70.716 57.837,71.083 57.779 C 71.449 57.721,71.832 57.560,71.934 57.420 C 72.069 57.236,72.434 57.166,73.268 57.164 C 74.641 57.162,75.167 57.041,75.167 56.731 C 75.167 56.349,76.595 56.429,77.000 56.833 M126.833 56.833 C 127.120 57.120,127.389 57.167,128.750 57.167 C 129.992 57.167,130.333 57.217,130.333 57.399 C 130.333 57.665,130.687 57.833,131.246 57.833 C 131.458 57.833,131.674 57.946,131.727 58.083 C 131.782 58.226,132.031 58.333,132.309 58.333 C 132.654 58.333,132.820 58.430,132.882 58.667 C 132.948 58.922,133.109 59.000,133.568 59.000 C 134.056 59.000,134.167 59.062,134.167 59.333 C 134.167 59.517,134.270 59.667,134.397 59.667 C 134.524 59.667,134.667 59.817,134.715 60.000 C 134.763 60.183,134.922 60.333,135.068 60.333 C 135.214 60.333,135.333 60.446,135.333 60.583 C 135.333 60.722,135.481 60.833,135.667 60.833 C 135.889 60.833,136.000 60.944,136.000 61.167 C 136.000 61.389,136.111 61.500,136.333 61.500 C 136.603 61.500,136.667 61.611,136.667 62.083 C 136.667 62.491,136.742 62.667,136.917 62.667 C 137.054 62.667,137.167 62.803,137.167 62.969 C 137.167 63.135,137.317 63.431,137.500 63.628 C 137.707 63.850,137.833 64.216,137.833 64.592 C 137.833 65.058,137.910 65.218,138.167 65.285 C 138.485 65.368,138.500 65.512,138.500 68.417 C 138.500 71.321,138.485 71.465,138.167 71.548 C 137.910 71.615,137.833 71.776,137.833 72.241 C 137.833 72.617,137.707 72.983,137.500 73.205 C 137.317 73.402,137.167 73.699,137.167 73.865 C 137.167 74.031,137.054 74.167,136.917 74.167 C 136.742 74.167,136.667 74.343,136.667 74.750 C 136.667 75.222,136.603 75.333,136.333 75.333 C 136.111 75.333,136.000 75.444,136.000 75.667 C 136.000 75.889,135.889 76.000,135.667 76.000 C 135.483 76.000,135.333 76.104,135.333 76.231 C 135.333 76.357,135.183 76.500,135.000 76.548 C 134.817 76.596,134.667 76.755,134.667 76.901 C 134.667 77.047,134.554 77.167,134.417 77.167 C 134.278 77.167,134.167 77.315,134.167 77.500 C 134.167 77.771,134.056 77.833,133.568 77.833 C 133.109 77.833,132.948 77.911,132.882 78.167 C 132.820 78.404,132.654 78.500,132.309 78.500 C 132.031 78.500,131.782 78.607,131.727 78.750 C 131.674 78.887,131.458 79.000,131.246 79.000 C 130.687 79.000,130.333 79.169,130.333 79.434 C 130.333 79.615,130.017 79.667,128.918 79.667 C 127.683 79.667,127.476 79.709,127.295 80.000 C 127.011 80.454,125.397 80.484,125.074 80.042 C 124.901 79.805,124.546 79.739,123.196 79.693 C 121.724 79.643,121.521 79.599,121.448 79.318 C 121.389 79.095,121.216 79.000,120.867 79.000 C 120.578 79.000,120.329 78.895,120.273 78.750 C 120.213 78.593,119.958 78.500,119.589 78.500 C 119.111 78.500,119.000 78.437,119.000 78.167 C 119.000 77.954,118.889 77.833,118.692 77.833 C 118.523 77.833,118.249 77.683,118.083 77.500 C 117.917 77.317,117.643 77.167,117.474 77.167 C 117.278 77.167,117.167 77.046,117.167 76.833 C 117.167 76.611,117.056 76.500,116.833 76.500 C 116.648 76.500,116.500 76.389,116.500 76.250 C 116.500 76.112,116.388 76.000,116.250 76.000 C 116.112 76.000,116.000 75.862,116.000 75.692 C 116.000 75.523,115.850 75.249,115.667 75.083 C 115.483 74.917,115.333 74.636,115.333 74.459 C 115.333 74.276,115.189 74.098,115.000 74.048 C 114.750 73.983,114.667 73.821,114.667 73.397 C 114.667 72.944,114.601 72.833,114.333 72.833 C 114.040 72.833,114.000 72.722,114.000 71.917 C 114.000 71.213,113.942 71.000,113.750 71.000 C 113.539 71.000,113.500 70.602,113.500 68.417 C 113.500 66.231,113.539 65.833,113.750 65.833 C 113.942 65.833,114.000 65.620,114.000 64.917 C 114.000 64.111,114.040 64.000,114.333 64.000 C 114.601 64.000,114.667 63.889,114.667 63.436 C 114.667 63.012,114.750 62.851,115.000 62.785 C 115.183 62.737,115.333 62.575,115.333 62.425 C 115.333 62.275,115.483 61.992,115.667 61.795 C 115.850 61.598,116.000 61.301,116.000 61.135 C 116.000 60.969,116.112 60.833,116.250 60.833 C 116.388 60.833,116.500 60.721,116.500 60.583 C 116.500 60.444,116.648 60.333,116.833 60.333 C 117.056 60.333,117.167 60.222,117.167 60.000 C 117.167 59.777,117.278 59.667,117.502 59.667 C 117.686 59.667,117.965 59.517,118.122 59.333 C 118.279 59.150,118.541 59.000,118.704 59.000 C 118.889 59.000,119.000 58.875,119.000 58.667 C 119.000 58.399,119.111 58.333,119.566 58.333 C 119.914 58.333,120.168 58.238,120.227 58.083 C 120.284 57.935,120.534 57.833,120.844 57.833 C 121.216 57.833,121.388 57.743,121.448 57.515 C 121.521 57.234,121.724 57.190,123.206 57.140 C 124.580 57.094,124.914 57.031,125.065 56.792 C 125.326 56.377,126.402 56.402,126.833 56.833 M335.461 56.833 C 335.643 57.124,335.850 57.167,337.065 57.167 C 338.321 57.167,338.470 57.200,338.548 57.500 C 338.598 57.692,338.776 57.833,338.965 57.833 C 339.179 57.833,339.393 58.040,339.572 58.417 C 339.724 58.737,339.958 59.000,340.091 59.000 C 340.286 59.000,340.333 59.310,340.333 60.583 C 340.333 61.921,340.292 62.167,340.068 62.167 C 339.922 62.167,339.764 62.311,339.718 62.488 C 339.672 62.665,339.529 62.851,339.400 62.900 C 339.272 62.949,339.167 63.104,339.167 63.245 C 339.167 63.389,339.022 63.500,338.833 63.500 C 338.650 63.500,338.500 63.605,338.500 63.733 C 338.500 63.910,338.155 63.980,337.070 64.025 C 335.946 64.071,335.594 64.146,335.427 64.375 C 335.229 64.645,334.682 64.667,328.107 64.667 L 321.000 64.667 321.000 60.583 L 321.000 56.500 328.127 56.500 C 335.073 56.500,335.258 56.508,335.461 56.833 M281.000 63.076 C 281.000 63.218,281.150 63.483,281.333 63.667 C 281.517 63.850,281.667 64.136,281.667 64.301 C 281.667 64.467,281.777 64.749,281.911 64.926 C 282.046 65.104,282.158 65.381,282.161 65.542 C 282.165 65.720,282.296 65.833,282.500 65.833 C 282.778 65.833,282.833 65.944,282.833 66.500 C 282.833 67.056,282.889 67.167,283.167 67.167 C 283.437 67.167,283.500 67.278,283.500 67.750 C 283.500 68.222,283.563 68.333,283.833 68.333 C 284.111 68.333,284.167 68.444,284.167 69.000 C 284.167 69.481,284.236 69.667,284.417 69.667 C 284.585 69.667,284.667 69.835,284.667 70.182 C 284.667 70.549,284.758 70.722,284.984 70.781 C 285.212 70.841,285.319 71.047,285.363 71.515 L 285.425 72.167 280.540 72.167 C 275.762 72.167,275.659 72.160,275.827 71.844 C 275.922 71.667,276.000 71.367,276.000 71.178 C 276.000 70.983,276.108 70.833,276.250 70.833 C 276.424 70.833,276.500 70.659,276.500 70.261 C 276.500 69.836,276.585 69.662,276.833 69.583 C 277.078 69.506,277.167 69.331,277.167 68.925 C 277.167 68.512,277.251 68.350,277.500 68.285 C 277.725 68.226,277.833 68.058,277.833 67.766 C 277.833 67.528,277.983 67.183,278.167 67.000 C 278.350 66.817,278.500 66.479,278.500 66.250 C 278.500 65.991,278.594 65.833,278.750 65.833 C 278.924 65.833,279.000 65.659,279.000 65.261 C 279.000 64.836,279.085 64.662,279.333 64.583 C 279.581 64.505,279.667 64.331,279.667 63.905 C 279.667 63.528,279.745 63.333,279.899 63.333 C 280.159 63.333,280.333 62.981,280.333 62.455 L 280.333 62.104 280.667 62.462 C 280.850 62.658,281.000 62.935,281.000 63.076 " stroke="none" fill="#ffffff" fill-rule="evenodd"></path><path id="path2" d="M42.458 23.448 C 42.298 23.490,42.167 23.594,42.167 23.679 C 42.167 23.914,42.434 23.863,42.667 23.583 C 42.781 23.446,42.846 23.342,42.812 23.353 C 42.778 23.363,42.619 23.406,42.458 23.448 M24.667 25.750 C 24.667 25.887,24.777 26.000,24.911 26.000 C 25.061 26.000,25.119 25.902,25.060 25.750 C 25.008 25.613,24.897 25.500,24.816 25.500 C 24.734 25.500,24.667 25.613,24.667 25.750 " stroke="none" fill="#005555" fill-rule="evenodd"></path><path id="path3" d="M30.833 0.661 C 30.833 0.889,30.943 1.000,31.167 1.000 C 31.350 1.000,31.500 0.928,31.500 0.839 C 31.500 0.751,31.350 0.598,31.167 0.500 C 30.884 0.349,30.833 0.373,30.833 0.661 M17.444 2.444 C 17.253 2.636,17.323 2.833,17.583 2.833 C 17.721 2.833,17.833 2.721,17.833 2.583 C 17.833 2.323,17.636 2.253,17.444 2.444 M24.000 6.764 C 24.000 6.909,24.089 6.998,24.198 6.962 C 24.507 6.859,24.558 6.500,24.264 6.500 C 24.119 6.500,24.000 6.619,24.000 6.764 M12.291 6.979 C 12.228 7.219,12.281 7.272,12.521 7.209 C 12.881 7.115,12.948 6.667,12.603 6.667 C 12.476 6.667,12.335 6.807,12.291 6.979 M21.111 7.944 C 20.952 8.104,20.974 8.333,21.149 8.333 C 21.231 8.333,21.341 8.221,21.394 8.083 C 21.491 7.829,21.314 7.742,21.111 7.944 M42.846 10.778 C 42.855 10.983,42.889 11.009,42.950 10.856 C 43.026 10.664,43.065 10.664,43.200 10.856 C 43.331 11.044,43.347 11.042,43.294 10.844 C 43.196 10.482,42.831 10.428,42.846 10.778 M9.764 11.941 C 9.618 12.321,9.700 12.330,10.042 11.972 C 10.264 11.740,10.278 11.667,10.101 11.667 C 9.973 11.667,9.822 11.790,9.764 11.941 M43.546 13.169 C 43.575 13.560,43.892 13.517,43.971 13.111 C 44.002 12.951,43.918 12.833,43.773 12.833 C 43.623 12.833,43.531 12.969,43.546 13.169 M9.273 15.449 C 9.037 15.686,9.160 17.167,9.417 17.167 C 9.605 17.167,9.667 16.964,9.667 16.343 C 9.667 15.565,9.511 15.211,9.273 15.449 M42.833 21.750 C 42.833 21.887,42.900 22.000,42.982 22.000 C 43.064 22.000,43.174 21.887,43.227 21.750 C 43.285 21.598,43.227 21.500,43.078 21.500 C 42.943 21.500,42.833 21.613,42.833 21.750 M34.788 21.988 C 34.726 22.227,34.785 22.304,35.019 22.286 C 35.201 22.272,35.333 22.137,35.333 21.965 C 35.333 21.564,34.894 21.583,34.788 21.988 M33.778 23.111 C 33.586 23.303,33.656 23.500,33.917 23.500 C 34.054 23.500,34.167 23.387,34.167 23.250 C 34.167 22.990,33.970 22.919,33.778 23.111 M12.333 27.399 C 12.333 27.527,12.446 27.674,12.583 27.727 C 12.753 27.792,12.833 27.718,12.833 27.495 C 12.833 27.314,12.721 27.167,12.583 27.167 C 12.446 27.167,12.333 27.271,12.333 27.399 M32.167 44.333 C 32.167 44.517,32.239 44.667,32.327 44.667 C 32.416 44.667,32.569 44.517,32.667 44.333 C 32.818 44.051,32.793 44.000,32.506 44.000 C 32.278 44.000,32.167 44.109,32.167 44.333 M21.205 44.865 C 21.308 45.174,21.667 45.225,21.667 44.931 C 21.667 44.785,21.548 44.667,21.403 44.667 C 21.258 44.667,21.169 44.756,21.205 44.865 M29.000 49.917 C 29.000 50.054,29.104 50.167,29.232 50.167 C 29.360 50.167,29.508 50.054,29.560 49.917 C 29.626 49.747,29.551 49.667,29.328 49.667 C 29.148 49.667,29.000 49.779,29.000 49.917 M27.167 53.035 C 27.167 53.436,27.606 53.417,27.712 53.012 C 27.774 52.773,27.715 52.696,27.481 52.714 C 27.299 52.728,27.167 52.863,27.167 53.035 " stroke="none" fill="#339999" fill-rule="evenodd"></path><path id="path4" d="" stroke="none" fill="#00ffff" fill-rule="evenodd"></path></g></svg>